<?xml version="1.0" standalone="no"?>
<!DOCTYPE svg PUBLIC "-//W3C//DTD SVG 20010904//EN"
 "http://www.w3.org/TR/2001/REC-SVG-20010904/DTD/svg10.dtd">
<svg version="1.0" xmlns="http://www.w3.org/2000/svg"
 width="700.000000pt" height="700.000000pt" viewBox="0 0 700.000000 700.000000"
 preserveAspectRatio="xMidYMid meet">
<metadata>
Created by potrace 1.11, written by Peter Selinger 2001-2013
</metadata>
<g transform="translate(0.000000,700.000000) scale(0.100000,-0.100000)"
fill="#000000" stroke="none">
<path d="M3362 4850 c-469 -39 -898 -336 -1101 -763 -89 -188 -125 -354 -125
-577 0 -178 14 -275 60 -417 26 -83 102 -244 129 -278 15 -19 15 -18 2 10 -28
58 -77 226 -93 318 -37 210 13 663 71 641 10 -4 15 0 15 11 0 11 -5 15 -15 11
-12 -4 -11 4 5 47 11 29 20 54 20 56 0 2 7 -2 15 -9 8 -7 22 -10 30 -6 22 8
18 37 -5 43 -24 6 -24 6 -3 46 9 18 16 35 15 38 -1 4 8 5 18 2 32 -8 53 16 47
53 -4 24 1 41 19 66 14 18 29 34 34 34 6 1 15 2 20 3 6 0 10 10 10 21 0 34 41
81 63 74 16 -5 19 -3 13 11 -10 27 3 36 24 15 38 -38 93 15 59 56 -14 17 5 42
66 83 39 27 41 27 58 9 9 -10 30 -18 45 -18 50 0 77 52 53 99 -8 15 -4 21 24
34 29 14 34 14 39 1 7 -19 28 -8 24 13 -3 18 87 57 110 48 8 -3 20 3 28 12 11
16 16 16 35 5 19 -12 24 -11 46 12 25 27 57 34 69 14 5 -8 11 -6 20 7 17 24
112 39 132 22 12 -9 16 -9 19 1 3 6 11 12 19 12 10 0 14 -14 14 -50 0 -49 -1
-50 -25 -44 -31 8 -55 -10 -55 -41 0 -31 24 -49 55 -41 l25 6 0 -78 c0 -78 -1
-80 -52 -162 -58 -92 -110 -137 -170 -146 -29 -5 -54 2 -129 36 -143 66 -263
67 -339 3 -36 -30 -53 -84 -75 -243 -19 -127 -38 -185 -67 -201 -12 -6 -48 -8
-91 -4 -95 8 -126 -10 -158 -92 -21 -53 -23 -75 -23 -243 -1 -161 2 -196 21
-269 67 -246 254 -469 484 -574 137 -62 311 -97 492 -97 l107 0 0 -131 0 -130
58 6 c199 22 305 47 451 109 288 121 550 367 691 646 41 82 97 247 117 348 22
115 22 317 -1 435 -111 570 -551 1000 -1121 1092 -96 16 -173 17 -323 5z"/>
<path d="M3377 4654 c-8 -8 1 -24 14 -24 5 0 9 7 9 15 0 15 -12 20 -23 9z"/>
<path d="M3290 4604 c-11 -12 -10 -18 4 -32 16 -16 18 -16 31 2 11 14 12 23 4
33 -15 17 -24 16 -39 -3z"/>
<path d="M3058 4575 c-10 -22 -9 -29 10 -47 18 -19 25 -20 47 -10 16 8 25 20
25 35 0 50 -62 66 -82 22z"/>
<path d="M3210 4575 c0 -8 5 -15 10 -15 6 0 10 7 10 15 0 8 -4 15 -10 15 -5 0
-10 -7 -10 -15z"/>
<path d="M3026 4523 c-11 -11 -6 -23 9 -23 8 0 15 4 15 9 0 13 -16 22 -24 14z"/>
<path d="M3336 4523 c-11 -11 -6 -23 9 -23 8 0 15 4 15 9 0 13 -16 22 -24 14z"/>
<path d="M2937 4494 c-8 -8 1 -24 14 -24 5 0 9 7 9 15 0 15 -12 20 -23 9z"/>
<path d="M3240 4485 c0 -9 5 -15 11 -13 6 2 11 8 11 13 0 5 -5 11 -11 13 -6 2
-11 -4 -11 -13z"/>
<path d="M3150 4475 c0 -9 5 -15 11 -13 6 2 11 8 11 13 0 5 -5 11 -11 13 -6 2
-11 -4 -11 -13z"/>
<path d="M2997 4467 c-8 -21 8 -39 29 -35 27 5 25 42 -2 46 -12 2 -24 -3 -27
-11z"/>
<path d="M3170 4444 c-11 -12 -10 -18 3 -32 16 -15 18 -15 34 0 13 14 14 20 3
32 -7 9 -16 16 -20 16 -4 0 -13 -7 -20 -16z"/>
<path d="M3333 4434 c-3 -8 1 -22 9 -30 13 -14 17 -14 32 1 13 13 14 20 5 31
-15 19 -38 18 -46 -2z"/>
<path d="M2940 4400 c0 -5 5 -10 10 -10 6 0 10 5 10 10 0 6 -4 10 -10 10 -5 0
-10 -4 -10 -10z"/>
<path d="M2980 4355 c-16 -19 -5 -61 17 -67 25 -7 42 1 53 23 23 43 -39 82
-70 44z"/>
<path d="M2725 4350 c3 -5 8 -10 11 -10 2 0 4 5 4 10 0 6 -5 10 -11 10 -5 0
-7 -4 -4 -10z"/>
<path d="M2847 4343 c-12 -11 -8 -23 8 -23 8 0 15 7 15 15 0 16 -12 20 -23 8z"/>
<path d="M2744 4315 c-8 -19 3 -35 26 -35 22 0 33 23 17 39 -15 15 -37 14 -43
-4z"/>
<path d="M2634 4215 c-8 -19 3 -35 26 -35 22 0 33 23 17 39 -15 15 -37 14 -43
-4z"/>
<path d="M2582 4199 c2 -6 8 -10 13 -10 5 0 11 4 13 10 2 6 -4 11 -13 11 -9 0
-15 -5 -13 -11z"/>
<path d="M2565 4130 c-8 -13 13 -40 30 -40 15 0 28 27 19 41 -7 12 -41 11 -49
-1z"/>
<path d="M2480 4115 c0 -9 5 -15 11 -13 6 2 11 8 11 13 0 5 -5 11 -11 13 -6 2
-11 -4 -11 -13z"/>
<path d="M2512 3979 c-53 -20 -51 -96 3 -121 22 -10 30 -8 53 9 63 47 17 139
-56 112z"/>
<path d="M2357 3834 c-8 -8 1 -24 14 -24 5 0 9 7 9 15 0 15 -12 20 -23 9z"/>
<path d="M2384 3796 c-9 -24 4 -48 23 -44 12 2 18 12 18 28 0 29 -32 41 -41
16z"/>
</g>
</svg>
