<svg id="Layer_1" data-name="Layer 1" xmlns="http://www.w3.org/2000/svg" width="105.83" height="142.54" viewBox="0 0 105.83 142.54"><defs><style>.cls-1{fill:#d8d2d7;}.cls-2{fill:#ff002b;}.cls-3{fill:#1d1d1b;}.cls-4{fill:#f566d7;}.cls-5{fill:#1495cc;}.cls-5,.cls-6,.cls-7,.cls-8{stroke:#000;stroke-miterlimit:10;}.cls-7{fill:#fff;}.cls-8{fill:none;}</style></defs><title>cola</title><rect class="cls-1" x="2.09" y="8.88" width="63.72" height="4.55" rx="1.88" transform="translate(-1.78 10.57) rotate(-17.26)"/><path class="cls-2" d="M64.14,2.82,4.35,21.39l-4,11.35A6.65,6.65,0,0,0,.3,36.9L18.5,95.48,95.17,71.66,77,13.22a6.68,6.68,0,0,0-2.64-3.54Z"/><rect class="cls-1" x="40.26" y="129.6" width="63.72" height="4.05" rx="1.88" transform="translate(180.05 235.94) rotate(162.74)"/><path class="cls-2" d="M41.68,139.16l59.8-18.57,4-11.35a6.65,6.65,0,0,0,.08-4.16L87.33,46.5,10.65,70.32l18.16,58.44a6.68,6.68,0,0,0,2.64,3.54Z"/><rect class="cls-1" x="63.86" y="2.17" width="14.36" height="128.88" transform="translate(-16.56 24.07) rotate(-17.26)"/><path class="cls-3" d="M48.94,57.27c6.31-2,11.73,1.18,14.13,7.11L64.43,64A12.81,12.81,0,1,0,40,71.55l1.47-.45C40.43,65.05,42.93,59.14,48.94,57.27Z"/><ellipse class="cls-4" cx="20.33" cy="65.84" rx="3.54" ry="1.61" transform="translate(-18.62 9) rotate(-17.26)"/><ellipse class="cls-4" cx="80.21" cy="46.28" rx="3.54" ry="1.61" transform="translate(-10.12 25.88) rotate(-17.26)"/><circle class="cls-5" cx="32.83" cy="41.72" r="8.39"/><ellipse class="cls-6" cx="32.56" cy="40.86" rx="8.09" ry="7.19" transform="translate(-10.66 11.5) rotate(-17.26)"/><circle class="cls-7" cx="28.7" cy="39.55" r="2.4"/><circle class="cls-7" cx="34.57" cy="40.24" r="1.2"/><line class="cls-8" x1="29.3" y1="47.53" x2="29.92" y2="49.53"/><line class="cls-8" x1="34.98" y1="47.64" x2="35.52" y2="49.36"/><line class="cls-8" x1="39.03" y1="44.5" x2="39.74" y2="46.79"/><circle class="cls-5" cx="53.04" cy="36.07" r="8.39"/><ellipse class="cls-6" cx="52.78" cy="35.21" rx="8.09" ry="7.19" transform="translate(-8.07 17.24) rotate(-17.26)"/><circle class="cls-7" cx="48.92" cy="33.9" r="2.4"/><circle class="cls-7" cx="54.78" cy="34.59" r="1.2"/><line class="cls-8" x1="49.51" y1="41.88" x2="50.13" y2="43.88"/><line class="cls-8" x1="55.2" y1="41.99" x2="55.73" y2="43.71"/><line class="cls-8" x1="59.24" y1="38.85" x2="59.96" y2="41.14"/></svg>
