<svg id="Layer_1" data-name="Layer 1" xmlns="http://www.w3.org/2000/svg" width="540" height="490" viewBox="0 0 540 490"><title>forgrund_flasker</title><path d="M144.65,258.17V421.3A16.7,16.7,0,0,1,128,438H21.29A16.69,16.69,0,0,1,4.6,421.3V258.17c0-22.74,33.3-42,46-48.49a20.39,20.39,0,0,1,4.6-1.7V131.42a19.42,19.42,0,1,1,38.84,0v76.41a16.67,16.67,0,0,1,3.51,1.3C109.31,215,144.65,234.75,144.65,258.17Z"/><path d="M535.4,197.66V380.3A18.69,18.69,0,0,1,516.7,399H397.28a18.69,18.69,0,0,1-18.68-18.7V197.66c0-25.46,37.29-47,51.51-54.29a22.34,22.34,0,0,1,5.15-1.91V55.74a21.74,21.74,0,1,1,43.48,0V141.3a18.77,18.77,0,0,1,3.93,1.45C495.83,149.36,535.4,171.44,535.4,197.66Z"/><path d="M281.29,181.11V378.77A20.23,20.23,0,0,1,261.06,399H131.82a20.22,20.22,0,0,1-20.22-20.23V181.11c0-27.55,40.35-50.87,55.74-58.75a24.51,24.51,0,0,1,5.58-2.07V27.53a23.53,23.53,0,1,1,47.05,0v92.59a19.94,19.94,0,0,1,4.25,1.57C238.47,128.85,281.29,152.73,281.29,181.11Z"/><path d="M413.29,268.11V465.77A20.23,20.23,0,0,1,393.06,486H263.82a20.22,20.22,0,0,1-20.22-20.23V268.11c0-27.55,40.35-50.87,55.74-58.75a24.51,24.51,0,0,1,5.58-2.07V114.53a23.53,23.53,0,1,1,47.05,0v92.59a19.94,19.94,0,0,1,4.25,1.57C370.47,215.85,413.29,239.73,413.29,268.11Z"/></svg>
