<svg id="Layer_1" data-name="Layer 1" xmlns="http://www.w3.org/2000/svg" width="112.4" height="112" viewBox="0 0 112.4 112"><defs><style>.cls-1{fill:#f28749;}.cls-2{fill:#f2ae2e;}.cls-3{fill:#f5e0cf;}.cls-4,.cls-5{fill:#f24c3d;}.cls-5{opacity:0;}.cls-6{fill:#f540d7;}.cls-6,.cls-7,.cls-8,.cls-9{stroke:#000;stroke-miterlimit:10;}.cls-8{fill:#fff;}.cls-9{fill:none;}.cls-10{fill:#1d1d1b;}.cls-11{fill:#f566d7;}</style></defs><title>grape</title><circle class="cls-1" cx="56" cy="56" r="56"/><circle class="cls-2" cx="56" cy="56" r="52.86"/><circle class="cls-3" cx="56" cy="56" r="50.24"/><path class="cls-4" d="M22.71,26.33,47.06,50.69a2.23,2.23,0,0,1-1.58,3.81H11a2.22,2.22,0,0,1-2.23-2.42A47.14,47.14,0,0,1,19.41,26.47,2.24,2.24,0,0,1,22.71,26.33Z"/><path class="cls-4" d="M25.81,20.07A47.19,47.19,0,0,1,51.42,9.45a2.22,2.22,0,0,1,2.42,2.23V46.14A2.24,2.24,0,0,1,50,47.72L25.67,23.37A2.24,2.24,0,0,1,25.81,20.07Z"/><path class="cls-4" d="M86.2,23.37,61.84,47.72A2.23,2.23,0,0,1,58,46.14V11.68a2.22,2.22,0,0,1,2.42-2.23A47.22,47.22,0,0,1,86.06,20.07,2.24,2.24,0,0,1,86.2,23.37Z"/><path class="cls-4" d="M92.45,26.47a47.08,47.08,0,0,1,10.63,25.61,2.22,2.22,0,0,1-2.23,2.42H66.39a2.23,2.23,0,0,1-1.58-3.81L89.16,26.33A2.22,2.22,0,0,1,92.45,26.47Z"/><path class="cls-4" d="M22.71,26.33,47.06,50.69a2.23,2.23,0,0,1-1.58,3.81H11a2.22,2.22,0,0,1-2.23-2.42A47.14,47.14,0,0,1,19.41,26.47,2.24,2.24,0,0,1,22.71,26.33Z"/><path class="cls-4" d="M25.81,20.07A47.19,47.19,0,0,1,51.42,9.45a2.22,2.22,0,0,1,2.42,2.23V46.14A2.24,2.24,0,0,1,50,47.72L25.67,23.37A2.24,2.24,0,0,1,25.81,20.07Z"/><path class="cls-4" d="M86.2,23.37,61.84,47.72A2.23,2.23,0,0,1,58,46.14V11.68a2.22,2.22,0,0,1,2.42-2.23A47.22,47.22,0,0,1,86.06,20.07,2.24,2.24,0,0,1,86.2,23.37Z"/><path class="cls-4" d="M92.45,26.47a47.08,47.08,0,0,1,10.63,25.61,2.22,2.22,0,0,1-2.23,2.42H66.39a2.23,2.23,0,0,1-1.58-3.81L89.16,26.33A2.22,2.22,0,0,1,92.45,26.47Z"/><path class="cls-5" d="M53.84,11.68V46.14A2.24,2.24,0,0,1,50,47.72L25.67,23.37a2.24,2.24,0,0,1,.14-3.3A47.19,47.19,0,0,1,51.42,9.45,2.22,2.22,0,0,1,53.84,11.68ZM22.71,26.33,47.06,50.69a2.23,2.23,0,0,1-1.58,3.81H11a2.22,2.22,0,0,1-2.23-2.42A47.14,47.14,0,0,1,19.41,26.47,2.24,2.24,0,0,1,22.71,26.33Zm-11,32.07H46.2a2.24,2.24,0,0,1,1.59,3.82L23.43,86.57a2.23,2.23,0,0,1-3.29-.14A47.12,47.12,0,0,1,9.51,60.82,2.23,2.23,0,0,1,11.74,58.4Zm40.41,45.06A47.19,47.19,0,0,1,26.53,92.83a2.23,2.23,0,0,1-.14-3.29L50.75,65.18a2.24,2.24,0,0,1,3.82,1.58v34.47A2.23,2.23,0,0,1,52.15,103.46Zm48.7-49H66.39a2.23,2.23,0,0,1-1.58-3.81L89.16,26.33a2.22,2.22,0,0,1,3.29.14,47.08,47.08,0,0,1,10.63,25.61A2.22,2.22,0,0,1,100.85,54.5Zm-40.4-45A47.22,47.22,0,0,1,86.06,20.07a2.24,2.24,0,0,1,.14,3.3L61.84,47.72A2.23,2.23,0,0,1,58,46.14V11.68A2.22,2.22,0,0,1,60.45,9.45Zm-1.7,91.78V66.76a2.24,2.24,0,0,1,3.82-1.58L86.92,89.54a2.22,2.22,0,0,1-.14,3.29,47.12,47.12,0,0,1-25.61,10.63A2.23,2.23,0,0,1,58.75,101.23ZM89.89,86.57,65.53,62.22a2.24,2.24,0,0,1,1.58-3.82h34.47a2.24,2.24,0,0,1,2.23,2.42A47.12,47.12,0,0,1,93.18,86.43,2.23,2.23,0,0,1,89.89,86.57Z"/><path class="cls-4" d="M100.75,54.5H66.61a2.32,2.32,0,0,1-1.65-4L89.09,26.4a2.32,2.32,0,0,1,3.43.15,47.22,47.22,0,0,1,10.55,25.38A2.34,2.34,0,0,1,100.75,54.5Z"/><path class="cls-4" d="M53.84,11.78V45.92a2.33,2.33,0,0,1-4,1.65L25.74,23.44A2.32,2.32,0,0,1,25.88,20,47.15,47.15,0,0,1,51.26,9.46,2.34,2.34,0,0,1,53.84,11.78Z"/><path class="cls-4" d="M86.13,23.44,62,47.57a2.33,2.33,0,0,1-4-1.65V11.78A2.34,2.34,0,0,1,60.6,9.46,47.15,47.15,0,0,1,86,20,2.33,2.33,0,0,1,86.13,23.44Z"/><path class="cls-4" d="M45.26,54.5H11.12A2.34,2.34,0,0,1,8.8,51.93,47.15,47.15,0,0,1,19.35,26.55a2.32,2.32,0,0,1,3.43-.15L46.91,50.53A2.32,2.32,0,0,1,45.26,54.5Z"/><path class="cls-4" d="M20.68,87.08A47.16,47.16,0,0,1,9.44,60a1.46,1.46,0,0,1,1.45-1.58h37.2a1.46,1.46,0,0,1,1,2.49L22.83,87.18A1.47,1.47,0,0,1,20.68,87.08Z"/><path class="cls-4" d="M25.79,90.14,52.08,63.85a1.46,1.46,0,0,1,2.49,1v37.2A1.46,1.46,0,0,1,53,103.53,47.12,47.12,0,0,1,25.88,92.28,1.46,1.46,0,0,1,25.79,90.14Z"/><path class="cls-4" d="M87.44,92.28a47.12,47.12,0,0,1-27.11,11.25,1.46,1.46,0,0,1-1.58-1.45V64.88a1.46,1.46,0,0,1,2.49-1L87.53,90.14A1.46,1.46,0,0,1,87.44,92.28Z"/><path class="cls-4" d="M90.49,87.18,64.2,60.89a1.46,1.46,0,0,1,1-2.49h37.19A1.47,1.47,0,0,1,103.88,60a47.13,47.13,0,0,1-11.25,27.1A1.46,1.46,0,0,1,90.49,87.18Z"/><path class="cls-4" d="M20.68,87.08A47.16,47.16,0,0,1,9.44,60a1.46,1.46,0,0,1,1.45-1.58h37.2a1.46,1.46,0,0,1,1,2.49L22.83,87.18A1.47,1.47,0,0,1,20.68,87.08Z"/><path class="cls-4" d="M25.79,90.14,52.08,63.85a1.46,1.46,0,0,1,2.49,1v37.2A1.46,1.46,0,0,1,53,103.53,47.12,47.12,0,0,1,25.88,92.28,1.46,1.46,0,0,1,25.79,90.14Z"/><path class="cls-4" d="M87.44,92.28a47.12,47.12,0,0,1-27.11,11.25,1.46,1.46,0,0,1-1.58-1.45V64.88a1.46,1.46,0,0,1,2.49-1L87.53,90.14A1.46,1.46,0,0,1,87.44,92.28Z"/><path class="cls-4" d="M90.49,87.18,64.2,60.89a1.46,1.46,0,0,1,1-2.49h37.19A1.47,1.47,0,0,1,103.88,60a47.13,47.13,0,0,1-11.25,27.1A1.46,1.46,0,0,1,90.49,87.18Z"/><path class="cls-4" d="M49,61,22.9,87.11a1.55,1.55,0,0,1-2.28-.1A47.2,47.2,0,0,1,9.44,60.08,1.56,1.56,0,0,1,11,58.4H47.87A1.54,1.54,0,0,1,49,61Z"/><path class="cls-4" d="M87.36,92.35a47.19,47.19,0,0,1-26.93,11.17A1.56,1.56,0,0,1,58.75,102V65.1A1.55,1.55,0,0,1,61.39,64L87.46,90.07A1.55,1.55,0,0,1,87.36,92.35Z"/><path class="cls-4" d="M54.57,65.1V102a1.56,1.56,0,0,1-1.68,1.54A47.16,47.16,0,0,1,26,92.35a1.55,1.55,0,0,1-.1-2.28L51.93,64A1.55,1.55,0,0,1,54.57,65.1Z"/><path class="cls-4" d="M103.87,60.08A47.19,47.19,0,0,1,92.7,87a1.55,1.55,0,0,1-2.28.1L64.35,61a1.55,1.55,0,0,1,1.1-2.64h36.88A1.55,1.55,0,0,1,103.87,60.08Z"/><circle class="cls-6" cx="41.05" cy="46.32" r="9.68"/><ellipse class="cls-7" cx="41.05" cy="45.28" rx="9.34" ry="8.3"/><circle class="cls-8" cx="37.25" cy="42.51" r="2.77"/><circle class="cls-8" cx="43.47" cy="45.28" r="1.38"/><line class="cls-9" x1="35.17" y1="51.5" x2="35.17" y2="53.92"/><line class="cls-9" x1="41.4" y1="53.58" x2="41.4" y2="55.65"/><line class="cls-9" x1="46.93" y1="51.5" x2="46.93" y2="54.27"/><circle class="cls-6" cx="71.41" cy="46.32" r="9.68"/><ellipse class="cls-7" cx="71.41" cy="45.28" rx="9.34" ry="8.3"/><circle class="cls-8" cx="67.6" cy="42.51" r="2.77"/><circle class="cls-8" cx="73.83" cy="45.28" r="1.38"/><line class="cls-9" x1="65.53" y1="51.5" x2="65.53" y2="53.92"/><line class="cls-9" x1="71.75" y1="53.58" x2="71.75" y2="55.65"/><line class="cls-9" x1="77.29" y1="51.5" x2="77.29" y2="54.27"/><path class="cls-10" d="M56,59.7c5.69,0,9.34,4,9.8,9.46H67a11,11,0,1,0-22.06,0h1.32C47,63.93,50.54,59.7,56,59.7Z"/><ellipse class="cls-11" cx="81.38" cy="60.97" rx="2.88" ry="1.31"/><ellipse class="cls-11" cx="30.62" cy="60.45" rx="2.88" ry="1.31"/></svg>
