<svg id="Layer_1" data-name="Layer 1" xmlns="http://www.w3.org/2000/svg" width="143.39" height="143.39" viewBox="0 0 143.39 143.39"><defs><style>.cls-1{fill:#b0dfe5;}.cls-2{fill:#24898e;}.cls-3{fill:#ccfeff;}.cls-4{fill:#f540d7;}.cls-4,.cls-5,.cls-6,.cls-7{stroke:#000;stroke-miterlimit:10;}.cls-6{fill:#fff;}.cls-7{fill:none;}.cls-8{fill:#1d1d1b;}.cls-9{fill:#f566d7;}</style></defs><title>isterning</title><rect class="cls-1" x="10.71" y="10.71" width="121.97" height="121.97" rx="24.27" transform="translate(-20.91 30.42) rotate(-20.97)"/><path class="cls-2" d="M52.89,131.25a4.46,4.46,0,0,1,.56,7.41c-4.64,3.58-12,6.26-17.82-5.65C28.82,119,44.41,126.49,52.89,131.25Z"/><path class="cls-3" d="M55.92,127.53a4.46,4.46,0,0,1,.56,7.42c-4.63,3.57-12,6.25-17.81-5.65C31.86,115.32,47.45,122.78,55.92,127.53Z"/><path class="cls-2" d="M90.83,11.4a4.47,4.47,0,0,1,1.35-7.32c5.4-2.27,13.22-3,15.78,10C111,29.35,97.81,18.16,90.83,11.4Z"/><path class="cls-3" d="M87,14.21A4.46,4.46,0,0,1,88.3,6.9c5.39-2.27,13.21-3,15.78,10C107.09,32.16,93.92,21,87,14.21Z"/><circle class="cls-4" cx="43.99" cy="62.79" r="10.67"/><ellipse class="cls-5" cx="43.58" cy="61.72" rx="10.29" ry="9.15" transform="matrix(0.93, -0.36, 0.36, 0.93, -19.21, 19.69)"/><circle class="cls-6" cx="38.57" cy="60.37" r="3.05"/><circle class="cls-6" cx="46.07" cy="60.77" r="1.52"/><line class="cls-7" x1="39.99" y1="70.45" x2="40.94" y2="72.94"/><line class="cls-7" x1="47.21" y1="70.13" x2="48.03" y2="72.26"/><line class="cls-7" x1="52.09" y1="65.81" x2="53.18" y2="68.65"/><path class="cls-8" d="M81.12,42c5.14-2,9.81.35,12.12,5.15l1.12-.43a10.67,10.67,0,0,0-19.93,7.64l1.19-.45C74.46,48.9,76.22,43.84,81.12,42Z"/><path d="M70.06,102.53l-.29-.7c.24-.1,23.72-9.8,25.88-17.15A3,3,0,0,0,95.24,82l.62-.44a3.76,3.76,0,0,1,.52,3.37C94.12,92.6,71,102.13,70.06,102.53Z"/><path d="M96.58,81.72a4.79,4.79,0,0,1-1,.28,5,5,0,0,1-5.63-4.17l.75-.11a4.19,4.19,0,1,0,8.29-1.24l.76-.11a4.93,4.93,0,0,1-.92,3.68A4.88,4.88,0,0,1,96.58,81.72Z"/><ellipse class="cls-9" cx="105.64" cy="59.09" rx="4.19" ry="1.91" transform="translate(-14.15 41.73) rotate(-20.97)"/><ellipse class="cls-9" cx="35.18" cy="86.11" rx="4.19" ry="1.91" transform="translate(-28.49 18.3) rotate(-20.97)"/></svg>
