<svg id="Layer_1" data-name="Layer 1" xmlns="http://www.w3.org/2000/svg" width="116.09" height="132.85" viewBox="0 0 116.09 132.85"><defs><style>.cls-1,.cls-7{fill:#00df64;}.cls-11,.cls-2,.cls-8{fill:#fff;}.cls-2,.cls-3,.cls-4,.cls-5,.cls-6,.cls-7{stroke:#fff;}.cls-10,.cls-11,.cls-12,.cls-2,.cls-3,.cls-4,.cls-5,.cls-6,.cls-7,.cls-9{stroke-miterlimit:10;}.cls-12,.cls-4,.cls-5{fill:none;}.cls-5{opacity:0;}.cls-6{fill:#bbff4d;}.cls-9{fill:#f540d7;}.cls-10,.cls-11,.cls-12,.cls-9{stroke:#000;}.cls-13{fill:#f566d7;}</style></defs><title>lime_figur</title><path class="cls-1" d="M115.53,119.21A73,73,0,0,1,30.55.4"/><path class="cls-2" d="M112.64,115.77A68.21,68.21,0,0,1,33.28,4.8"/><path class="cls-3" d="M112.84,116.05A68.56,68.56,0,0,1,33.08,4.52m.4.56a67.87,67.87,0,0,0,79,110.41"/><path class="cls-3" d="M112.84,116.05A68.56,68.56,0,0,1,33.08,4.52m.4.56a67.87,67.87,0,0,0,79,110.41"/><path class="cls-4" d="M112.64,115.77A68.21,68.21,0,0,1,33.28,4.8"/><path class="cls-5" d="M112.84,116.05A68.56,68.56,0,0,1,33.08,4.52m.4.56a67.87,67.87,0,0,0,79,110.41"/><path class="cls-6" d="M66.85,56.48,34.48,11.22A62.17,62.17,0,0,0,12,47.37Z"/><path class="cls-6" d="M69.15,66.4,23.9,98.77A62.14,62.14,0,0,0,60,121.26Z"/><path class="cls-6" d="M66,61.92,11.09,52.81a62.08,62.08,0,0,0,9.6,41.47Z"/><path class="cls-6" d="M74.59,67.3l-9.11,54.86a62.16,62.16,0,0,0,41.48-9.6Z"/><path class="cls-7" d="M115.65,120,30.27.6Z"/><line class="cls-8" x1="30.83" y1="1.04" x2="115.81" y2="119.86"/><rect class="cls-1" x="72.09" y="-13.14" width="1.67" height="146.07" transform="translate(-21.23 53.6) rotate(-35.57)"/><circle class="cls-9" cx="49.81" cy="62.86" r="9.65"/><ellipse class="cls-10" cx="50.66" cy="62.26" rx="8.27" ry="9.3" transform="translate(-26.77 41.09) rotate(-35.57)"/><circle class="cls-11" cx="50.69" cy="57.58" r="2.76"/><circle class="cls-11" cx="52.06" cy="64.22" r="1.38"/><line class="cls-12" x1="42.2" y1="61.11" x2="40.24" y2="62.51"/><line class="cls-12" x1="44.13" y1="67.35" x2="42.45" y2="68.55"/><line class="cls-12" x1="49.02" y1="70.63" x2="46.78" y2="72.24"/><circle class="cls-9" cx="64.49" cy="84.56" r="9.65"/><ellipse class="cls-10" cx="65.33" cy="83.96" rx="8.27" ry="9.3" transform="translate(-36.65 53.67) rotate(-35.57)"/><circle class="cls-11" cx="65.36" cy="79.27" r="2.76"/><circle class="cls-11" cx="66.73" cy="85.92" r="1.38"/><line class="cls-12" x1="56.88" y1="82.8" x2="54.91" y2="84.21"/><line class="cls-12" x1="58.8" y1="89.05" x2="57.12" y2="90.25"/><line class="cls-12" x1="63.69" y1="92.33" x2="61.45" y2="93.93"/><path class="cls-12" d="M45.27,96.19A11.72,11.72,0,0,1,31.64,77.13"/><path class="cls-12" d="M37.82,77a4.13,4.13,0,1,1-6.34-5.3"/><path class="cls-12" d="M50.87,98.54a4.13,4.13,0,1,1-3.23-7.61"/><ellipse class="cls-13" cx="29.95" cy="60.55" rx="1.72" ry="3.79" transform="translate(-29.64 28.72) rotate(-35.57)"/><ellipse class="cls-13" cx="58.65" cy="101.86" rx="1.72" ry="3.79" transform="translate(-48.31 53.13) rotate(-35.57)"/></svg>
