<svg id="Layer_1" data-name="Layer 1" xmlns="http://www.w3.org/2000/svg" width="90" height="86.54" viewBox="0 0 90 86.54"><defs><style>.cls-1{fill:#00df64;}.cls-2{fill:#fcfcfc;}.cls-3,.cls-4{fill:#fff;}.cls-3,.cls-4,.cls-5{stroke:#fff;stroke-miterlimit:10;}.cls-4{opacity:0;}.cls-5{fill:#bbff4d;}</style></defs><title>lime_liv_ui</title><circle class="cls-1" cx="44.85" cy="43.27" r="43.27"/><circle class="cls-2" cx="44.85" cy="43.27" r="41.25"/><path class="cls-1" d="M17.81,19,40.89,42.11H8.24A36.37,36.37,0,0,1,17.81,19Z"/><path class="cls-1" d="M20.1,16.75A36.44,36.44,0,0,1,43.18,7.17V39.83Z"/><path class="cls-1" d="M69.49,16.75,46.41,39.83V7.17A36.44,36.44,0,0,1,69.49,16.75Z"/><path class="cls-1" d="M71.78,19a36.43,36.43,0,0,1,9.58,23.07H48.7Z"/><path class="cls-3" d="M17.81,19,40.89,42.11H8.24A36.37,36.37,0,0,1,17.81,19Z"/><path class="cls-3" d="M20.1,16.75A36.44,36.44,0,0,1,43.18,7.17V39.83Z"/><path class="cls-3" d="M69.49,16.75,46.41,39.83V7.17A36.44,36.44,0,0,1,69.49,16.75Z"/><path class="cls-3" d="M71.78,19a36.43,36.43,0,0,1,9.58,23.07H48.7Z"/><path class="cls-4" d="M43.18,7.17V39.83L20.1,16.75A36.44,36.44,0,0,1,43.18,7.17ZM17.81,19,40.89,42.11H8.24A36.37,36.37,0,0,1,17.81,19Zm-9,26.09H41.45L18.37,68.21A36.54,36.54,0,0,1,8.79,45.13Zm35,34.94A36.5,36.5,0,0,1,20.66,70.5L43.74,47.42Zm37.62-38H48.7L71.78,19A36.43,36.43,0,0,1,81.36,42.11ZM46.41,7.17a36.44,36.44,0,0,1,23.08,9.58L46.41,39.83ZM47,80.07V47.42L70.05,70.5A36.48,36.48,0,0,1,47,80.07ZM72.34,68.21,49.26,45.13H81.91A36.42,36.42,0,0,1,72.34,68.21Z"/><path class="cls-5" d="M81.36,42.11H48.7L71.78,19A36.43,36.43,0,0,1,81.36,42.11Z"/><path class="cls-5" d="M43.18,7.17V39.83L20.1,16.75A36.44,36.44,0,0,1,43.18,7.17Z"/><path class="cls-5" d="M69.49,16.75,46.41,39.83V7.17A36.44,36.44,0,0,1,69.49,16.75Z"/><path class="cls-5" d="M40.89,42.11H8.24A36.37,36.37,0,0,1,17.81,19Z"/><path class="cls-1" d="M18.37,68.21A36.54,36.54,0,0,1,8.79,45.13H41.45Z"/><path class="cls-1" d="M20.66,70.5,43.74,47.42V80.07A36.5,36.5,0,0,1,20.66,70.5Z"/><path class="cls-1" d="M70.05,70.5A36.48,36.48,0,0,1,47,80.07V47.42Z"/><path class="cls-1" d="M72.34,68.21,49.26,45.13H81.91A36.42,36.42,0,0,1,72.34,68.21Z"/><path class="cls-3" d="M18.37,68.21A36.54,36.54,0,0,1,8.79,45.13H41.45Z"/><path class="cls-3" d="M20.66,70.5,43.74,47.42V80.07A36.5,36.5,0,0,1,20.66,70.5Z"/><path class="cls-3" d="M70.05,70.5A36.48,36.48,0,0,1,47,80.07V47.42Z"/><path class="cls-3" d="M72.34,68.21,49.26,45.13H81.91A36.42,36.42,0,0,1,72.34,68.21Z"/><path class="cls-5" d="M41.45,45.13,18.37,68.21A36.54,36.54,0,0,1,8.79,45.13Z"/><path class="cls-5" d="M70.05,70.5A36.48,36.48,0,0,1,47,80.07V47.42Z"/><path class="cls-5" d="M43.74,47.42V80.07A36.5,36.5,0,0,1,20.66,70.5Z"/><path class="cls-5" d="M81.91,45.13a36.42,36.42,0,0,1-9.57,23.08L49.26,45.13Z"/></svg>
