<svg id="Layer_1" data-name="Layer 1" xmlns="http://www.w3.org/2000/svg" width="75.56" height="173.6" viewBox="0 0 75.56 173.6"><defs><style>.cls-1{fill:#75cead;}.cls-2{fill:#fff;}.cls-3{fill:#c890d7;}.cls-4{fill:#1d1d1b;}.cls-5{fill:#ff002b;}.cls-6{fill:#f566d7;}</style></defs><title>lys_rom</title><path class="cls-1" d="M49.56,10.32v.13L49.3,30l-.19,14.69-.17,12.5a1.74,1.74,0,0,1-1.76,1.72L30,58.67a1.74,1.74,0,0,1-1.72-1.76l.62-46.73a10.32,10.32,0,0,1,20.64.14Z"/><path class="cls-1" d="M75.56,78.16l-.28,21.57-.4,30-.46,35.16a8.87,8.87,0,0,1-9,8.75l-56.68-.75a8.86,8.86,0,0,1-8.75-9l.46-35.16.4-30,.28-21.57c.16-12.08,18-22.07,24.79-25.44a11.38,11.38,0,0,1,5.22-1.19l15.7.21a9.11,9.11,0,0,1,4,1C57.08,55,75.72,65.72,75.56,78.16Z"/><path class="cls-2" d="M75.28,99.73l-.4,30-74.42-1H.35l.39-30H.86l27.29.36a9.85,9.85,0,0,1,10.21-9.45,9.85,9.85,0,0,1,10,9.72Z"/><path d="M19.63,116.73q-.18.64-.54.78a.71.71,0,0,1-.3,0,.42.42,0,0,0-.26,0l-2.06.83a.47.47,0,0,0-.2.23.48.48,0,0,1-.2.22,2.55,2.55,0,0,1-1.28-.23,2.68,2.68,0,0,1-1.18-.61,1,1,0,0,1-.09-.69,3,3,0,0,0,0-.34l.12-9.26a.48.48,0,0,0-.11-.24.32.32,0,0,1-.08-.17c0-.17.18-.3.49-.38a3.45,3.45,0,0,1,1.25.23c.72.22,1.09.47,1.09.76a.66.66,0,0,1-.15.32.67.67,0,0,0-.16.33l-.1,7.63,1.44-.61a2,2,0,0,1,.47-.24,2.83,2.83,0,0,1,1,.6C19.4,116.33,19.66,116.6,19.63,116.73Z"/><path d="M27.19,108.27c0,.48-.06.78-.34.9a1,1,0,0,0-.22.11,31.09,31.09,0,0,0-2.17,4.29,19.77,19.77,0,0,0-1.32,3.5,1,1,0,0,0,.05.38,1.68,1.68,0,0,1,0,.46c-.07.62-.23,1-.49,1a3.59,3.59,0,0,1-.95-.22,4.19,4.19,0,0,1-1-.42c-.31-.22-.47-.44-.46-.66a.79.79,0,0,1,.1-.37c.13-.36.41-1.09.84-2.2q-1.11-2.37-1.5-3.27a23.5,23.5,0,0,1-1.09-3,.71.71,0,0,0-.16-.21.43.43,0,0,1-.13-.25c0-.14.19-.34.55-.62.77-.57,1.3-.84,1.58-.8a.61.61,0,0,1,.4.29.83.83,0,0,1,.17.38,7.21,7.21,0,0,0,.07.84,14.13,14.13,0,0,0,1.28,3.73c.53-1.26.83-2,.89-2.07a15.75,15.75,0,0,1,1.22-2.18,3.93,3.93,0,0,1,.2-.56.79.79,0,0,1,.75-.25,2.82,2.82,0,0,1,1,.49C26.94,107.91,27.18,108.13,27.19,108.27Z"/><path d="M33.91,116.66a2.21,2.21,0,0,1-.7,1.66,2.67,2.67,0,0,1-1.88.66,2.27,2.27,0,0,1-.65-.11l-.66-.18-.67-.16a1.24,1.24,0,0,1-.58-.32,2.37,2.37,0,0,1-.59-1.08,4.86,4.86,0,0,0-.43-1.09,2.43,2.43,0,0,1-.25-.39.62.62,0,0,1,.36-.66.87.87,0,0,1,.31,0,7.38,7.38,0,0,1,1.18.13,2,2,0,0,1,.77.22,3.34,3.34,0,0,1,.21,1q.11.83.36.93a.27.27,0,0,0,.12,0c.18,0,.33-.14.46-.43a2.76,2.76,0,0,0,.2-1,1.65,1.65,0,0,0-.73-1.61,8.8,8.8,0,0,1-2.37-1.74,2.83,2.83,0,0,1-.69-2.16,4.25,4.25,0,0,1,.78-2.08,2.59,2.59,0,0,1,1.45-1.22,5.61,5.61,0,0,1,1.93.64l.8.32a1.7,1.7,0,0,1,.65.49,2.79,2.79,0,0,1,.36,1.68c0,.14,0,.36,0,.64s0,.43,0,.53a1.48,1.48,0,0,0,.09.32.63.63,0,0,1,0,.3c0,.4-.2.63-.52.67a2.9,2.9,0,0,1-1-.22,2.22,2.22,0,0,1-1-.58,1.21,1.21,0,0,1,0-.28c0-.13,0-.45.06-.93s.06-.84.06-1.06c0-.4,0-.59-.13-.59-.28,0-.52.22-.72.61a3.13,3.13,0,0,0-.3,1.33,2,2,0,0,0,.71,1.77l1.64,1.07a3.47,3.47,0,0,1,1.08,1A3.75,3.75,0,0,1,33.91,116.66Z"/><path d="M45.83,117.05c.08.15-.09.54-.51,1.14s-.76.9-1,.89a.81.81,0,0,1-.7-.48,2.88,2.88,0,0,0-.2-.4l-2.88-2.75,0,2.55a1,1,0,0,0,.11.38.73.73,0,0,1,.11.35q0,.42-.54.45a4.07,4.07,0,0,1-1.22-.17c-.59-.14-.88-.28-.88-.42a.54.54,0,0,1,0-.19,2,2,0,0,0,0-.3l.12-9.62a.33.33,0,0,0,0-.17.41.41,0,0,1,0-.12c0-.24.2-.39.56-.43a2.34,2.34,0,0,1,.75.14,2.94,2.94,0,0,0,.83.15,2.9,2.9,0,0,0,1-.36,2.81,2.81,0,0,1,1.27-.35,2.18,2.18,0,0,1,.43,0,1.68,1.68,0,0,1,.7.36l.59.56c.5.49.76.74.78.77a1.46,1.46,0,0,1,.37.93q.07,1.6-2.78,4.07c.38.36,1.22,1.22,2.52,2.59a1.51,1.51,0,0,1,.35.17A1.24,1.24,0,0,1,45.83,117.05Zm-2.95-7.75a5.1,5.1,0,0,0-2.3,1.32l0,2.11a4.67,4.67,0,0,0,1.58-1.4,3.42,3.42,0,0,0,1-1.75C43.12,109.4,43,109.3,42.88,109.3Z"/><path d="M51.09,119.17a1.68,1.68,0,0,1-.64-.08l-.7-.23c-.28-.07-.71-.21-1.29-.41a3.29,3.29,0,0,1-1.65-1.93,8.15,8.15,0,0,1-.45-3,13.65,13.65,0,0,1,.54-3.37c.47-1.72,1.07-2.58,1.78-2.57a1.22,1.22,0,0,1,.27.06l.27.06a7.08,7.08,0,0,1,1.31-.27l.28,0a3.39,3.39,0,0,1,2.58,2.1,8.83,8.83,0,0,1,.8,4,8.71,8.71,0,0,1-.82,3.78A2.93,2.93,0,0,1,51.09,119.17ZM51,109.06c-.2,0-.41.22-.61.81s-.41.89-.61.89a.43.43,0,0,1-.2-.08.81.81,0,0,0-.21-.09,7.22,7.22,0,0,0-.51,2.94,9.39,9.39,0,0,0,.28,2.58c.23.8.56,1.25,1,1.34s.9-.41,1.22-1.52a13.3,13.3,0,0,0,.44-3.46,10.11,10.11,0,0,0-.18-2.29C51.45,109.51,51.24,109.14,51,109.06Z"/><path d="M67.28,118.81c-.07.39-.18.6-.34.64a3,3,0,0,1-1.26-.2c-.66-.19-1-.38-1.12-.56a.52.52,0,0,1,0-.21,1.8,1.8,0,0,1,0-.27,1.31,1.31,0,0,0,0-.31l.09-6.26a31.28,31.28,0,0,0-1.78,5.69.45.45,0,0,0,0,.12,3.15,3.15,0,0,0,0,.44c0,.21,0,.33,0,.39a5.21,5.21,0,0,1,0,.55.42.42,0,0,1-.3.33,1.91,1.91,0,0,1-.48,0,3.65,3.65,0,0,1-2.46-.65.4.4,0,0,1-.08-.35,1.37,1.37,0,0,0,0-.4c-.33-1.05-.62-2-.88-2.76a32.83,32.83,0,0,0-1.2-3.4l-.08,5.49a1.82,1.82,0,0,0,.11.5c.08.25.13.42.14.48a2.34,2.34,0,0,1,0,.66c0,.31-.09.51-.2.58a.75.75,0,0,1-.32,0,4.66,4.66,0,0,1-1.21-.2,1.72,1.72,0,0,1-.89-.38.37.37,0,0,1-.07-.23,1.08,1.08,0,0,1,.06-.28,1.53,1.53,0,0,0,0-.3l.13-9.78a.71.71,0,0,1,.14-.37.65.65,0,0,1,.32-.28,5.5,5.5,0,0,1,1.8.35c1.09.3,1.67.56,1.73.77a.7.7,0,0,1,0,.33c0,.19-.05.31-.05.35a.54.54,0,0,0,0,.22l1.8,5q.39-1.23,1.47-5c.35-1.28.64-1.94.85-2a.52.52,0,0,1,.22,0,3.75,3.75,0,0,1,.79.13,5.09,5.09,0,0,0,.83.18c.73.07,1.15.12,1.26.14.43.09.67.24.72.46a.76.76,0,0,1,0,.21,1.57,1.57,0,0,1-.08.39,1.47,1.47,0,0,0-.07.38L67,118a.93.93,0,0,0,.16.42A.62.62,0,0,1,67.28,118.81Z"/><polygon class="cls-2" points="49.3 29.99 49.11 44.68 28.51 44.41 28.7 29.73 49.3 29.99"/><circle class="cls-3" cx="19.22" cy="80.47" r="8.76"/><path d="M19.22,89.72H19.1A9.27,9.27,0,0,1,10,80.34a9.25,9.25,0,0,1,2.8-6.51,9.08,9.08,0,0,1,6.58-2.62,9.27,9.27,0,0,1,9.14,9.38h0a9.25,9.25,0,0,1-9.26,9.13Zm0-17.51a8.11,8.11,0,1,0,.11,0Z"/><ellipse cx="19.23" cy="79.53" rx="7.51" ry="8.44" transform="translate(-60.54 97.71) rotate(-89.24)"/><path d="M19.26,87.53h-.13c-4.94-.06-8.9-3.71-8.84-8.12A7.56,7.56,0,0,1,13,73.76a9.34,9.34,0,0,1,6.33-2.24c4.93.07,8.89,3.71,8.83,8.13S24.13,87.53,19.26,87.53Zm-.06-15a8.42,8.42,0,0,0-5.54,2,6.56,6.56,0,0,0-2.37,4.9c0,3.86,3.47,7,7.85,7.11h.12c4.32,0,7.86-3.07,7.91-6.9h0c.06-3.86-3.47-7-7.85-7.11Z"/><circle class="cls-2" cx="15.83" cy="76.98" r="2.5"/><path d="M15.83,80h0a3,3,0,0,1-2.11-.9,3,3,0,0,1,.05-4.25A3.16,3.16,0,0,1,15.86,74a3,3,0,0,1,2.12.91A3,3,0,0,1,15.83,80Zm0-5a2,2,0,0,0-1.39.57,2,2,0,0,0-.61,1.4,2.05,2.05,0,0,0,.57,1.43,2,2,0,0,0,1.41.6,1.91,1.91,0,0,0,1.42-.57,2,2,0,0,0,.61-1.4,2.05,2.05,0,0,0-.57-1.43,2,2,0,0,0-1.41-.6Z"/><circle class="cls-2" cx="21.42" cy="79.56" r="1.25"/><path d="M21.42,81.31h0a1.76,1.76,0,0,1-1.73-1.78,1.71,1.71,0,0,1,1.77-1.72,1.75,1.75,0,0,1,0,3.5Zm0-2.5a.75.75,0,0,0,0,1.5h0a.75.75,0,0,0,0-1.5Z"/><rect x="12.73" y="85.68" width="2.19" height="1" transform="translate(-72.53 98.83) rotate(-89.22)"/><rect x="18.49" y="87.47" width="1.88" height="1" transform="translate(-68.8 106.2) rotate(-89.22)"/><rect x="23.21" y="85.98" width="2.5" height="1" transform="translate(-62.35 109.75) rotate(-89.22)"/><circle class="cls-3" cx="57.36" cy="81.59" r="8.76"/><path d="M57.36,90.85h-.12a9.26,9.26,0,0,1,.12-18.51h.12a9.26,9.26,0,0,1,9.13,9.38h0a9.23,9.23,0,0,1-9.25,9.13Zm0-17.51a8.26,8.26,0,0,0-.11,16.51,8,8,0,0,0,5.87-2.34,8.16,8.16,0,0,0,2.49-5.81,8.26,8.26,0,0,0-8.14-8.36Z"/><ellipse cx="57.37" cy="80.66" rx="7.51" ry="8.44" transform="translate(-24.03 136.96) rotate(-89.24)"/><path d="M57.4,88.66h-.13A9.47,9.47,0,0,1,51,86.25a7.53,7.53,0,0,1-2.56-5.71c.06-4.38,4-7.89,8.91-7.89h.14c4.93.07,8.89,3.71,8.83,8.12a7.54,7.54,0,0,1-2.71,5.65A9.42,9.42,0,0,1,57.4,88.66Zm-.06-15c-4.32,0-7.86,3.07-7.91,6.9a6.54,6.54,0,0,0,2.24,5,8.43,8.43,0,0,0,5.61,2.15h.12a8.42,8.42,0,0,0,5.54-2,6.52,6.52,0,0,0,2.37-4.9c.06-3.86-3.47-7.05-7.85-7.11Z"/><circle class="cls-2" cx="53.97" cy="78.11" r="2.5"/><path d="M54,81.11h0a3,3,0,0,1-3-3,3,3,0,0,1,3-3,3,3,0,0,1,3,3h0A3,3,0,0,1,54,81.11Zm0-5a2,2,0,0,0,0,4,2,2,0,0,0,2-2h0a2,2,0,0,0-2-2Z"/><circle class="cls-2" cx="59.56" cy="80.69" r="1.25"/><path d="M59.56,82.44h0a1.76,1.76,0,0,1,0-3.51h0a1.76,1.76,0,0,1,1.23.53,1.73,1.73,0,0,1,.5,1.25h0a1.7,1.7,0,0,1-.53,1.23A1.74,1.74,0,0,1,59.56,82.44Zm0-2.51a.75.75,0,0,0-.75.75.76.76,0,0,0,.74.76h0a.73.73,0,0,0,.52-.22.7.7,0,0,0,.23-.52h0a.75.75,0,0,0-.21-.54.8.8,0,0,0-.53-.23Z"/><rect x="50.87" y="86.81" width="2.19" height="1" transform="translate(-36.04 138.08) rotate(-89.22)"/><rect x="56.64" y="88.6" width="1.88" height="1" transform="translate(-32.31 145.45) rotate(-89.22)"/><rect x="61.35" y="87.11" width="2.5" height="1" transform="translate(-25.86 149) rotate(-89.22)"/><path class="cls-4" d="M54.47,142.81l-34.39-.45C20,149.09,23.76,157,29.35,161.1a8.12,8.12,0,0,1,15.36.2C50.41,157.37,54.38,149.55,54.47,142.81Z"/><path class="cls-5" d="M37.1,155.72a8.11,8.11,0,0,0-7.75,5.38A13.3,13.3,0,0,0,37,163.85a13.24,13.24,0,0,0,7.71-2.55A8.11,8.11,0,0,0,37.1,155.72Z"/><ellipse class="cls-6" cx="68.87" cy="94.52" rx="1.56" ry="3.44" transform="translate(-26.55 162.14) rotate(-89.24)"/><ellipse class="cls-6" cx="6.96" cy="93.71" rx="1.56" ry="3.44" transform="translate(-86.83 99.43) rotate(-89.24)"/></svg>
