<svg id="Layer_1" data-name="Layer 1" xmlns="http://www.w3.org/2000/svg" width="117.06" height="156.64" viewBox="0 0 117.06 156.64"><defs><style>.cls-1{fill:#00df06;}.cls-2{fill:#00f106;}.cls-3{fill:#8611ab;}.cls-3,.cls-4,.cls-5,.cls-6{stroke:#000;stroke-miterlimit:10;}.cls-5{fill:#fff;}.cls-6{fill:none;}.cls-7{fill:#ff002b;}.cls-8{fill:#f566d7;}</style></defs><title>mynte</title><path class="cls-1" d="M102.56,112.37a7.31,7.31,0,0,0,.89-5.15,7.3,7.3,0,0,0,4.49-10,7.31,7.31,0,0,0,2.93-10,7.21,7.21,0,0,0,2.49-2.51,7.3,7.3,0,0,0-.59-8.34,7.31,7.31,0,0,0,1.56-10.33,7.39,7.39,0,0,0,1.49-1.78,7.31,7.31,0,0,0-1.5-9.28A7.53,7.53,0,0,0,116,53a7.32,7.32,0,0,0-1.86-9.58A7,7,0,0,0,115.28,42a7.32,7.32,0,0,0-1.75-9.49,6.78,6.78,0,0,0,.65-.91,7.31,7.31,0,0,0-1.76-9.49,6.83,6.83,0,0,0,.66-.91,7.32,7.32,0,0,0-2.27-9.85l.21-.31a7.32,7.32,0,0,0-12.58-7.5,7.49,7.49,0,0,0-.89,2.35,7.32,7.32,0,0,0-9.5,2.82,9.3,9.3,0,0,0-.47.95,7.31,7.31,0,0,0-9.8,2.67,7,7,0,0,0-.56,1.17A7.31,7.31,0,0,0,64.71,18,7.3,7.3,0,0,0,54,25.38a7.3,7.3,0,0,0-10.91,5.88,7.32,7.32,0,0,0-8.54,3.21,7.23,7.23,0,0,0-1,3.81l-.21.18a7.32,7.32,0,0,0-7.55,7.33,7.3,7.3,0,0,0-6.66,8.7,7.29,7.29,0,0,0-4.89,8.85A7.33,7.33,0,0,0,9.63,74.19,7.31,7.31,0,0,0,6,85.31a7.22,7.22,0,0,0-3.62,3.06,7.32,7.32,0,0,0,1.23,9,7.4,7.4,0,0,0-2.4,2.45,7.32,7.32,0,0,0,1.51,9.28,7.25,7.25,0,0,0-1.72,2,7.33,7.33,0,0,0,2.54,10l.44.23.06.3a7.22,7.22,0,0,0-1.45,1.74,7.33,7.33,0,0,0,2.54,10,8.39,8.39,0,0,0,1,.49,7.32,7.32,0,0,0,9.23,9.77,7.31,7.31,0,0,0,10.55,6.36l.65.23a7.31,7.31,0,0,0,13,3.57,7.8,7.8,0,0,0,.91.65,7.33,7.33,0,0,0,10-2.54,7.59,7.59,0,0,0,.72-1.66,7.31,7.31,0,0,0,9.31-2.91,9.3,9.3,0,0,0,.47-1,7.32,7.32,0,0,0,10.82-5.93,7.33,7.33,0,0,0,8.53-3.22,7.1,7.1,0,0,0,1-2.8,7.3,7.3,0,0,0,8.48-8.74,7.3,7.3,0,0,0,6.64-9.82A7.32,7.32,0,0,0,102.56,112.37Z"/><path class="cls-2" d="M16.23,143.17,91.28,30.55,26.62,149.24a4.09,4.09,0,0,1-5.76,1.68l-3.31-2A4.08,4.08,0,0,1,16.23,143.17Z"/><circle class="cls-3" cx="63.39" cy="52.66" r="9.76"/><ellipse class="cls-4" cx="63.93" cy="51.76" rx="8.37" ry="9.41" transform="matrix(0.51, -0.86, 0.86, 0.51, -13.27, 80.15)"/><circle class="cls-5" cx="62.07" cy="47.4" r="2.79"/><circle class="cls-5" cx="66.03" cy="53.01" r="1.39"/><line class="cls-6" x1="55.63" y1="54.11" x2="54.38" y2="56.21"/><line class="cls-6" x1="59.94" y1="59.12" x2="58.87" y2="60.92"/><line class="cls-6" x1="65.81" y1="60.18" x2="64.38" y2="62.58"/><circle class="cls-3" cx="86.08" cy="65.93" r="9.76"/><ellipse class="cls-4" cx="86.62" cy="65.04" rx="8.37" ry="9.41" transform="translate(-13.61 106.12) rotate(-59.19)"/><circle class="cls-5" cx="84.75" cy="60.68" r="2.79"/><circle class="cls-5" cx="88.71" cy="66.29" r="1.39"/><line class="cls-6" x1="78.31" y1="67.39" x2="77.06" y2="69.48"/><line class="cls-6" x1="82.63" y1="72.4" x2="81.56" y2="74.2"/><line class="cls-6" x1="88.49" y1="73.46" x2="87.07" y2="75.86"/><path d="M54.73,68a12.72,12.72,0,0,0-1.79,6.3,6.45,6.45,0,0,1,3.61.92,6.56,6.56,0,0,1,2.28,9,5.46,5.46,0,0,1-.47.68c.25.18.51.36.78.52a12.73,12.73,0,0,0,17.45-4.41Z"/><path class="cls-7" d="M56.55,75.24a6.45,6.45,0,0,0-3.61-.92,12.72,12.72,0,0,0,5.42,10.62,5.46,5.46,0,0,0,.47-.68A6.56,6.56,0,0,0,56.55,75.24Z"/><ellipse class="cls-8" cx="86.28" cy="83.18" rx="1.74" ry="3.83" transform="translate(-29.36 114.67) rotate(-59.19)"/><ellipse class="cls-8" cx="47.35" cy="59.97" rx="1.74" ry="3.83" transform="translate(-28.4 69.92) rotate(-59.19)"/></svg>
