<svg xmlns="http://www.w3.org/2000/svg" xmlns:xlink="http://www.w3.org/1999/xlink" width="587" height="390" viewBox="0 0 587 390"><defs><style>.cls-1{isolation:isolate;}.cls-2{filter:url(#AI_GaussianBlur_4);}.cls-3,.cls-4{fill:none;stroke:#f2cb07;stroke-miterlimit:10;}.cls-3{stroke-width:3px;}.cls-5{mix-blend-mode:hard-light;filter:url(#AI_GaussianBlur_7);}.cls-6{fill:#20f42c;}.cls-7{fill:#d907f2;}</style><filter id="AI_GaussianBlur_4" name="AI_GaussianBlur_4"><feGaussianBlur stdDeviation="4"/></filter><filter id="AI_GaussianBlur_7" name="AI_GaussianBlur_7"><feGaussianBlur stdDeviation="7"/></filter></defs><title>neonlys</title><g class="cls-1"><g id="Layer_1" data-name="Layer 1"><g class="cls-2"><path class="cls-3" d="M506.87,345.65a1964.12,1964.12,0,0,1-430.65-.43,13.89,13.89,0,0,1-12-11A685.43,685.43,0,0,1,65,51.77a8.44,8.44,0,0,1,7.3-6.63C215,28.75,361.2,29.36,510.61,44.77a14.32,14.32,0,0,1,12.46,11.08c20.21,89,19.36,180.65.52,274.48A19.2,19.2,0,0,1,506.87,345.65Z"/></g><g class="cls-2"><path class="cls-4" d="M506.39,345.65a1964.13,1964.13,0,0,1-430.65-.44,13.88,13.88,0,0,1-12-11,685.43,685.43,0,0,1,.83-282.42,8.45,8.45,0,0,1,7.3-6.63c142.64-16.39,288.89-15.77,438.3-.36a14.32,14.32,0,0,1,12.46,11.07c20.21,89,19.36,180.65.52,274.49A19.21,19.21,0,0,1,506.39,345.65Z"/></g><g class="cls-5"><path class="cls-6" d="M468.19,87.32H118.72c-2.15,0-3.89-3.14-3.89-7h0c0-3.87,1.74-7,3.89-7H468.19c2.14,0,3.88,3.15,3.88,7h0C472.07,84.18,470.33,87.32,468.19,87.32Z"/></g><rect class="cls-6" x="116.08" y="75.76" width="354.75" height="7.71" rx="3.86"/><g class="cls-5"><path class="cls-7" d="M460.62,316.33H126.29c-2.06,0-3.72-3-3.72-6.71h0c0-3.71,1.66-6.71,3.72-6.71H460.62c2.05,0,3.71,3,3.71,6.71h0C464.33,313.33,462.67,316.33,460.62,316.33Z"/></g><rect class="cls-7" x="125.01" y="305.35" width="336.88" height="7.32" rx="3.66"/><path class="cls-3" d="M506.39,345.65a1964.13,1964.13,0,0,1-430.65-.44,13.88,13.88,0,0,1-12-11,685.43,685.43,0,0,1,.83-282.42,8.45,8.45,0,0,1,7.3-6.63c142.64-16.39,288.89-15.77,438.3-.36a14.32,14.32,0,0,1,12.46,11.07c20.21,89,19.36,180.65.52,274.49A19.21,19.21,0,0,1,506.39,345.65Z"/></g></g></svg>
