<svg id="Layer_1" data-name="Layer 1" xmlns="http://www.w3.org/2000/svg" width="104.98" height="104.98" viewBox="0 0 104.98 104.98"><defs><style>.cls-1{fill:#a61f69;}.cls-2{fill:#f2f2f2;}.cls-3{fill:#f2b138;}.cls-4{fill:#591a03;}.cls-5{fill:#f540d7;}.cls-5,.cls-6,.cls-7,.cls-8{stroke:#000;stroke-miterlimit:10;}.cls-7{fill:#fff;}.cls-8{fill:none;}.cls-9{fill:#1d1d1b;}.cls-10{fill:#f566d7;}</style></defs><title>passionsfrugt</title><circle class="cls-1" cx="52.49" cy="52.49" r="52.48"/><circle class="cls-2" cx="52.49" cy="52.49" r="46.65"/><circle class="cls-3" cx="52.49" cy="52.49" r="41.85"/><ellipse class="cls-4" cx="35.05" cy="34.32" rx="3.09" ry="5.66" transform="translate(-11.89 48.57) rotate(-61.28)"/><ellipse class="cls-4" cx="65.29" cy="78.88" rx="3.09" ry="5.66" transform="translate(-35.26 98.23) rotate(-61.28)"/><ellipse class="cls-4" cx="69.75" cy="37.15" rx="3.09" ry="5.66" transform="translate(3.65 80.47) rotate(-61.28)"/><ellipse class="cls-4" cx="36.31" cy="60" rx="3.09" ry="5.66" transform="translate(-11.06 8.29) rotate(-11.31)"/><ellipse class="cls-4" cx="63.3" cy="61.08" rx="3.09" ry="5.66" transform="translate(-10.75 13.6) rotate(-11.31)"/><ellipse class="cls-4" cx="54.9" cy="34.45" rx="3.09" ry="5.66" transform="translate(-5.69 11.44) rotate(-11.31)"/><ellipse class="cls-4" cx="19.12" cy="54.49" rx="5.66" ry="3.09" transform="translate(-10.32 4.81) rotate(-11.31)"/><ellipse class="cls-4" cx="38.82" cy="80.68" rx="5.66" ry="3.09" transform="translate(-15.07 9.18) rotate(-11.31)"/><ellipse class="cls-4" cx="49.62" cy="51.97" rx="5.66" ry="3.09" transform="matrix(0.98, -0.2, 0.2, 0.98, -9.23, 10.74)"/><ellipse class="cls-4" cx="81.92" cy="68.33" rx="5.66" ry="3.09" transform="translate(-11.81 17.4) rotate(-11.31)"/><ellipse class="cls-4" cx="64.66" cy="22.98" rx="5.66" ry="3.09" transform="translate(-3.25 13.13) rotate(-11.31)"/><ellipse class="cls-4" cx="81.81" cy="45.63" rx="5.66" ry="3.09" transform="translate(-7.36 16.93) rotate(-11.31)"/><ellipse class="cls-4" cx="46.1" cy="19.6" rx="3.09" ry="5.66" transform="translate(0.44 40.21) rotate(-47.33)"/><ellipse class="cls-4" cx="23.49" cy="38.49" rx="3.09" ry="5.66" transform="translate(-7.09 5.35) rotate(-11.31)"/><ellipse class="cls-4" cx="51.98" cy="79.25" rx="3.09" ry="5.66" transform="translate(-14.53 11.74) rotate(-11.31)"/><ellipse class="cls-4" cx="27.5" cy="72" rx="3.09" ry="5.66" transform="translate(-13.59 6.79) rotate(-11.31)"/><circle class="cls-5" cx="40.76" cy="39.08" r="8.35"/><ellipse class="cls-6" cx="40.92" cy="38.2" rx="7.16" ry="8.05" transform="translate(-3.99 71.61) rotate(-79.68)"/><circle class="cls-7" cx="38.12" cy="35.26" r="2.39"/><circle class="cls-7" cx="42.97" cy="38.57" r="1.19"/><line class="cls-8" x1="34.97" y1="42.57" x2="34.59" y2="44.63"/><line class="cls-8" x1="39.93" y1="45.29" x2="39.61" y2="47.05"/><line class="cls-8" x1="44.94" y1="44.39" x2="44.52" y2="46.73"/><circle class="cls-5" cx="67.75" cy="43.99" r="8.35"/><ellipse class="cls-6" cx="67.91" cy="43.11" rx="7.16" ry="8.05" transform="matrix(0.18, -0.98, 0.98, 0.18, 13.33, 102.21)"/><circle class="cls-7" cx="65.11" cy="40.18" r="2.39"/><circle class="cls-7" cx="69.97" cy="43.49" r="1.19"/><line class="cls-8" x1="61.97" y1="47.49" x2="61.59" y2="49.54"/><line class="cls-8" x1="66.93" y1="50.21" x2="66.61" y2="51.97"/><line class="cls-8" x1="71.94" y1="49.3" x2="71.51" y2="51.65"/><path class="cls-9" d="M51.79,60.59c5.36,1,8.12,5.34,7.61,10.59l1.16.21a10.57,10.57,0,0,0-20.79-3.78l1.25.23C42.59,63,46.68,59.66,51.79,60.59Z"/><ellipse class="cls-10" cx="27.73" cy="50.51" rx="1.63" ry="3.58" transform="translate(-26.93 68.74) rotate(-79.68)"/><ellipse class="cls-10" cx="77" cy="59.48" rx="1.63" ry="3.58" transform="translate(4.69 124.58) rotate(-79.68)"/></svg>
