<svg id="Layer_1" data-name="Layer 1" xmlns="http://www.w3.org/2000/svg" xmlns:xlink="http://www.w3.org/1999/xlink" width="200" height="190" viewBox="0 0 200 190"><defs><style>.cls-1{filter:url(#AI_GaussianBlur_7);}.cls-2{fill:#d8d2d7;}.cls-3{fill:#ff002b;}.cls-4{fill:#1d1d1b;}.cls-5{fill:#f566d7;}.cls-6{fill:#1495cc;}.cls-14,.cls-27,.cls-6,.cls-7,.cls-8,.cls-9{stroke:#000;}.cls-14,.cls-16,.cls-17,.cls-18,.cls-19,.cls-20,.cls-21,.cls-27,.cls-6,.cls-7,.cls-8,.cls-9{stroke-miterlimit:10;}.cls-16,.cls-30,.cls-8{fill:#fff;}.cls-18,.cls-19,.cls-9{fill:none;}.cls-10{fill:#a61f69;}.cls-11{fill:#f2f2f2;}.cls-12{fill:#f2b138;}.cls-13{fill:#591a03;}.cls-14{fill:#f540d7;}.cls-15,.cls-21{fill:#00df64;}.cls-16,.cls-17,.cls-18,.cls-19,.cls-20,.cls-21{stroke:#fff;}.cls-19{opacity:0;}.cls-20{fill:#bbff4d;}.cls-22{fill:#b0dfe5;}.cls-23{fill:#24898e;}.cls-24{fill:#ccfeff;}.cls-25{fill:#00df06;}.cls-26{fill:#00f106;}.cls-27{fill:#8611ab;}.cls-28{fill:url(#linear-gradient);}.cls-29{fill:url(#linear-gradient-2);}.cls-31{fill:#f2cb07;}.cls-32{fill:url(#linear-gradient-3);}.cls-33{fill:url(#linear-gradient-4);}</style><filter id="AI_GaussianBlur_7" name="AI_GaussianBlur_7"><feGaussianBlur stdDeviation="7"/></filter><linearGradient id="linear-gradient" x1="132.54" y1="113.48" x2="196.19" y2="113.48" gradientUnits="userSpaceOnUse"><stop offset="0" stop-color="#f24607"/><stop offset="1" stop-color="#f27507"/></linearGradient><linearGradient id="linear-gradient-2" x1="8.63" y1="113.53" x2="141.36" y2="113.53" xlink:href="#linear-gradient"/><linearGradient id="linear-gradient-3" x1="129.22" y1="114.29" x2="192.21" y2="114.29" xlink:href="#linear-gradient"/><linearGradient id="linear-gradient-4" x1="6.58" y1="114.34" x2="137.94" y2="114.34" xlink:href="#linear-gradient"/></defs><title>play_knap</title><g class="cls-1"><rect class="cls-2" x="32.99" y="3" width="66.38" height="4.74" rx="1.88"/><path class="cls-3" d="M98.8,6.41H33.57L26.1,16.47a7,7,0,0,0-1.36,4.12V84.5h83.65V20.75a7,7,0,0,0-1.53-4.35Z"/><rect class="cls-2" x="33.73" y="134.93" width="66.38" height="4.22" rx="1.88"/><path class="cls-3" d="M34.31,135.13H99.54L107,125.07a6.89,6.89,0,0,0,1.37-4.12V57H24.71v63.75a6.87,6.87,0,0,0,1.54,4.34Z"/><rect class="cls-2" x="78.46" y="4.87" width="14.97" height="134.28"/><path class="cls-4" d="M66.84,54.11c6.89,0,11.31,4.8,11.86,11.44h1.49a13.35,13.35,0,1,0-26.69,0h1.6C56,59.23,60.28,54.11,66.84,54.11Z"/><ellipse class="cls-5" cx="35.73" cy="55.58" rx="3.69" ry="1.68"/><ellipse class="cls-5" cx="101.35" cy="54.62" rx="3.69" ry="1.68"/><circle class="cls-6" cx="55.62" cy="35.44" r="8.74"/><ellipse class="cls-7" cx="55.62" cy="34.5" rx="8.43" ry="7.49"/><circle class="cls-8" cx="52.18" cy="32.01" r="2.5"/><circle class="cls-8" cx="57.8" cy="34.5" r="1.25"/><line class="cls-9" x1="50.31" y1="40.12" x2="50.31" y2="42.31"/><line class="cls-9" x1="55.93" y1="42" x2="55.93" y2="43.87"/><line class="cls-9" x1="60.93" y1="40.12" x2="60.93" y2="42.62"/><circle class="cls-6" cx="77.48" cy="36.07" r="8.74"/><ellipse class="cls-7" cx="77.48" cy="35.13" rx="8.43" ry="7.49"/><circle class="cls-8" cx="74.04" cy="32.63" r="2.5"/><circle class="cls-8" cx="79.66" cy="35.13" r="1.25"/><line class="cls-9" x1="72.17" y1="40.75" x2="72.17" y2="42.94"/><line class="cls-9" x1="77.79" y1="42.62" x2="77.79" y2="44.5"/><line class="cls-9" x1="82.79" y1="40.75" x2="82.79" y2="43.25"/><circle class="cls-10" cx="86.65" cy="160.73" r="26.22"/><circle class="cls-11" cx="86.65" cy="160.73" r="23.3"/><circle class="cls-12" cx="86.65" cy="160.73" r="20.91"/><ellipse class="cls-13" cx="85.91" cy="148.17" rx="1.54" ry="2.83" transform="translate(-47.03 40.18) rotate(-20.81)"/><ellipse class="cls-13" cx="82.96" cy="174.91" rx="1.54" ry="2.83" transform="translate(-56.72 40.87) rotate(-20.81)"/><ellipse class="cls-13" cx="98.18" cy="160.49" rx="1.54" ry="2.83" transform="translate(-50.61 45.34) rotate(-20.81)"/><ellipse class="cls-13" cx="78.06" cy="158.33" rx="2.83" ry="1.54" transform="translate(-98.24 149.36) rotate(-60.84)"/><ellipse class="cls-13" cx="87.97" cy="167.5" rx="2.83" ry="1.54" transform="translate(-101.16 162.71) rotate(-60.84)"/><ellipse class="cls-13" cx="93.41" cy="154.65" rx="2.83" ry="1.54" transform="translate(-87.15 160.88) rotate(-60.84)"/><ellipse class="cls-13" cx="73.32" cy="150.67" rx="1.54" ry="2.83" transform="translate(-93.98 141.29) rotate(-60.84)"/><ellipse class="cls-13" cx="72.31" cy="167.01" rx="1.54" ry="2.83" transform="translate(-108.76 148.78) rotate(-60.84)"/><ellipse class="cls-13" cx="85.73" cy="159.6" rx="1.54" ry="2.83" transform="translate(-95.41 156.7) rotate(-60.84)"/><ellipse class="cls-13" cx="92.69" cy="176.29" rx="1.54" ry="2.83" transform="translate(-106.41 171.34) rotate(-60.84)"/><ellipse class="cls-13" cx="100.84" cy="153.46" rx="1.54" ry="2.83" transform="translate(-82.3 166.75) rotate(-60.84)"/><ellipse class="cls-13" cx="100.01" cy="167.62" rx="1.54" ry="2.83" transform="translate(-95.1 173.29) rotate(-60.84)"/><ellipse class="cls-13" cx="94.88" cy="146.15" rx="1.54" ry="2.83" transform="translate(-16.77 12.37) rotate(-6.86)"/><ellipse class="cls-13" cx="80.16" cy="146" rx="2.83" ry="1.54" transform="translate(-86.4 144.87) rotate(-60.84)"/><ellipse class="cls-13" cx="77.78" cy="170.73" rx="2.83" ry="1.54" transform="translate(-109.21 155.47) rotate(-60.84)"/><ellipse class="cls-13" cx="70.82" cy="160.04" rx="2.83" ry="1.54" transform="translate(-103.44 143.91) rotate(-60.84)"/><circle class="cls-14" cx="86.54" cy="151.82" r="4.17"/><ellipse class="cls-7" cx="86.88" cy="151.54" rx="3.58" ry="4.02" transform="translate(-76.24 89.05) rotate(-39.21)"/><circle class="cls-8" cx="86.77" cy="149.52" r="1.19"/><circle class="cls-8" cx="87.54" cy="152.35" r="0.6"/><line class="cls-9" x1="83.2" y1="151.27" x2="82.4" y2="151.93"/><line class="cls-9" x1="84.21" y1="153.92" x2="83.51" y2="154.48"/><line class="cls-9" x1="86.41" y1="155.2" x2="85.48" y2="155.95"/><circle class="cls-14" cx="95.2" cy="162.45" r="4.17"/><ellipse class="cls-7" cx="95.55" cy="162.16" rx="3.58" ry="4.02" transform="translate(-81 96.92) rotate(-39.21)"/><circle class="cls-8" cx="95.44" cy="160.14" r="1.19"/><circle class="cls-8" cx="96.21" cy="162.97" r="0.6"/><line class="cls-9" x1="91.87" y1="161.9" x2="91.06" y2="162.56"/><line class="cls-9" x1="92.87" y1="164.54" x2="92.18" y2="165.1"/><line class="cls-9" x1="95.07" y1="165.82" x2="94.15" y2="166.57"/><path class="cls-4" d="M83.75,163.58a4.57,4.57,0,0,1-.54,6.49l.37.45a5.27,5.27,0,1,0-6.67-8.17l.4.49C79.47,161.52,82.11,161.57,83.75,163.58Z"/><ellipse class="cls-5" cx="77.88" cy="151.94" rx="0.81" ry="1.79" transform="translate(-78.52 83.45) rotate(-39.21)"/><ellipse class="cls-5" cx="93.69" cy="171.33" rx="0.81" ry="1.79" transform="translate(-87.21 97.81) rotate(-39.21)"/><path class="cls-15" d="M71,151A26.53,26.53,0,1,1,18,151"/><path class="cls-16" d="M69.42,151.17a24.78,24.78,0,1,1-49.56,0"/><path class="cls-17" d="M69.54,151.17a24.9,24.9,0,1,1-49.8,0m.25,0a24.65,24.65,0,1,0,49.3,0"/><path class="cls-17" d="M69.54,151.17a24.9,24.9,0,1,1-49.8,0m.25,0a24.65,24.65,0,1,0,49.3,0"/><path class="cls-18" d="M69.42,151.17a24.78,24.78,0,1,1-49.56,0"/><path class="cls-19" d="M69.54,151.17a24.9,24.9,0,1,1-49.8,0m.25,0a24.65,24.65,0,1,0,49.3,0"/><path class="cls-20" d="M42.22,152.17H22a22.62,22.62,0,0,0,5.93,14.29Z"/><path class="cls-20" d="M45.64,153.59V173.8a22.57,22.57,0,0,0,14.28-5.93Z"/><path class="cls-20" d="M43.64,153.59,29.35,167.87a22.62,22.62,0,0,0,14.29,5.93Z"/><path class="cls-20" d="M47.06,152.17l14.28,14.29a22.62,22.62,0,0,0,5.93-14.29Z"/><path class="cls-21" d="M71.29,151.17h0Z"/><rect class="cls-15" x="17.98" y="150.79" width="53.06" height="0.61"/><circle class="cls-14" cx="40.51" cy="158.55" r="3.5"/><ellipse class="cls-7" cx="40.51" cy="158.18" rx="3.38" ry="3"/><circle class="cls-8" cx="39.13" cy="157.18" r="1"/><circle class="cls-8" cx="41.39" cy="158.18" r="0.5"/><line class="cls-9" x1="38.38" y1="160.43" x2="38.38" y2="161.31"/><line class="cls-9" x1="40.63" y1="161.18" x2="40.63" y2="161.93"/><line class="cls-9" x1="42.64" y1="160.43" x2="42.64" y2="161.43"/><circle class="cls-14" cx="50.02" cy="158.8" r="3.5"/><ellipse class="cls-7" cx="50.02" cy="158.43" rx="3.38" ry="3"/><circle class="cls-8" cx="48.64" cy="157.43" r="1"/><circle class="cls-8" cx="50.9" cy="158.43" r="0.5"/><line class="cls-9" x1="47.89" y1="160.68" x2="47.89" y2="161.56"/><line class="cls-9" x1="50.15" y1="161.43" x2="50.15" y2="162.18"/><line class="cls-9" x1="52.15" y1="160.68" x2="52.15" y2="161.68"/><path class="cls-9" d="M49.39,166.94a4.26,4.26,0,0,1-8.51,0"/><path class="cls-9" d="M42.15,165.08a1.5,1.5,0,0,1-2.91.76"/><path class="cls-9" d="M51.27,165.78a1.5,1.5,0,0,1-2.93-.65"/><ellipse class="cls-5" cx="35.63" cy="163.93" rx="1.38" ry="0.63"/><ellipse class="cls-5" cx="53.9" cy="164.19" rx="1.38" ry="0.63"/><path class="cls-22" d="M112.19,87.13l-23.31-8.3a9.1,9.1,0,0,1-5.46-11.55l8.15-23.73A8.86,8.86,0,0,1,102.91,38l23.31,8.3a9.12,9.12,0,0,1,5.47,11.55l-8.15,23.74A8.87,8.87,0,0,1,112.19,87.13Z"/><path class="cls-23" d="M89.14,74.37a1.58,1.58,0,0,1-1.52,2.14c-2-.1-4.6-1.06-3.46-5.62C85.49,65.55,88,71.14,89.14,74.37Z"/><path class="cls-24" d="M90.79,74.06a1.58,1.58,0,0,1-1.52,2.14c-2-.1-4.61-1.06-3.47-5.62C87.14,65.24,89.6,70.83,90.79,74.06Z"/><path class="cls-23" d="M126.22,50.61a1.56,1.56,0,0,1,2-1.67c1.94.63,4.18,2.23,1.94,6.33C127.53,60.09,126.55,54,126.22,50.61Z"/><path class="cls-24" d="M124.55,50.48a1.57,1.57,0,0,1,2-1.67c1.94.63,4.18,2.23,1.94,6.33C125.87,60,124.88,53.92,124.55,50.48Z"/><ellipse class="cls-14" cx="102.19" cy="53.79" rx="3.72" ry="3.79"/><ellipse class="cls-7" cx="102.32" cy="53.41" rx="3.24" ry="3.59" transform="translate(13.98 127.7) rotate(-67.63)"/><ellipse class="cls-8" cx="101.29" cy="51.9" rx="1.06" ry="1.08"/><ellipse class="cls-8" cx="103.2" cy="53.72" rx="0.53" ry="0.54"/><line class="cls-9" x1="99.4" y1="54.95" x2="99.09" y2="55.84"/><line class="cls-9" x1="101.39" y1="56.52" x2="101.13" y2="57.28"/><line class="cls-9" x1="103.66" y1="56.47" x2="103.31" y2="57.49"/><path class="cls-4" d="M116.75,56.66a3.31,3.31,0,0,1,2.07,4.18l.39.14a3.8,3.8,0,0,0-2.28-4.83,3.7,3.7,0,0,0-4.74,2.33l.42.15A3.37,3.37,0,0,1,116.75,56.66Z"/><path d="M100.17,70.53l.09-.26c.08,0,8.51,2.79,10.74,1.29a1,1,0,0,0,.5-.83l.27,0a1.35,1.35,0,0,1-.62,1C108.81,73.36,100.53,70.65,100.17,70.53Z"/><path d="M111.91,71a2.7,2.7,0,0,1-.34-.17,1.78,1.78,0,0,1-.56-2.42l.23.14a1.51,1.51,0,0,0,.47,2,1.46,1.46,0,0,0,2-.48l.23.14a1.74,1.74,0,0,1-1.07.79A1.77,1.77,0,0,1,111.91,71Z"/><ellipse class="cls-5" cx="119.42" cy="66.93" rx="0.67" ry="1.46" transform="translate(16.05 156.67) rotate(-70.23)"/><ellipse class="cls-5" cx="94.6" cy="58.09" rx="0.67" ry="1.46" transform="translate(7.94 127.46) rotate(-70.23)"/><path class="cls-25" d="M56.22,62.86a3.51,3.51,0,0,0-1.53-2,3.49,3.49,0,0,0,.23-2.53,3.56,3.56,0,0,0-2.26-2.4,3.55,3.55,0,0,0-2.56-4.37,3.54,3.54,0,0,0-3.2-4.29,3.71,3.71,0,0,0-.1-1.44,3.57,3.57,0,0,0-3-2.57,3.94,3.94,0,0,0-.13-1.12,3.55,3.55,0,0,0-3.79-2.56,3.6,3.6,0,0,0-.12-1.26,3.55,3.55,0,0,0-4-2.54,3.74,3.74,0,0,0-.13-.87,3.56,3.56,0,0,0-3.94-2.55,3.1,3.1,0,0,0-.1-.53,3.57,3.57,0,0,0-3.95-2.55,3.1,3.1,0,0,0-.1-.53,3.55,3.55,0,0,0-4.24-2.49,1.16,1.16,0,0,0,0-.18A3.56,3.56,0,0,0,16.37,28a3.68,3.68,0,0,0,.53,1.09,3.57,3.57,0,0,0-2.17,4.3,4.09,4.09,0,0,0,.18.49,3.54,3.54,0,0,0-2.33,4.35,3.45,3.45,0,0,0,.23.59,3.59,3.59,0,0,0-.91.14,3.56,3.56,0,0,0-1.7,5.77,3.56,3.56,0,0,0-1,6.26,3.55,3.55,0,0,0-1.56,5.82A3.57,3.57,0,0,0,6,60.9a3.49,3.49,0,0,0,1,1.64v.13a3.58,3.58,0,0,0-.92,3.5,3.51,3.51,0,0,0,1,1.62A3.55,3.55,0,0,0,6.37,71a3.6,3.6,0,0,0,1.52,2,3.54,3.54,0,0,0,1.5,4.68A3.55,3.55,0,0,0,11.69,83a3.56,3.56,0,0,0,2.73,5,3.56,3.56,0,0,0,3.48,4.88A3.64,3.64,0,0,0,18,94.51a3.55,3.55,0,0,0,3.78,2.56,3.56,3.56,0,0,0,4.52,3.72l.22-.08.13.08a3.4,3.4,0,0,0,.14,1.09,3.56,3.56,0,0,0,4.39,2.46,2.85,2.85,0,0,0,.51-.2,3.56,3.56,0,0,0,6.54,0,3.52,3.52,0,0,0,3.34.77A3.57,3.57,0,0,0,44,102.54a2.69,2.69,0,0,0,.29-.16,3.55,3.55,0,0,0,5.6-3.4,3.41,3.41,0,0,0,.54-.1,3.56,3.56,0,0,0,2.45-4.4,3.65,3.65,0,0,0-.34-.81,3.55,3.55,0,0,0,2.07-4.26,2.88,2.88,0,0,0-.18-.49,3.54,3.54,0,0,0,1.52-5.8A3.57,3.57,0,0,0,57.63,79,3.62,3.62,0,0,0,57,77.75a3.57,3.57,0,0,0,1.32-3.85,3.51,3.51,0,0,0-1.59-2.07,3.55,3.55,0,0,0-1.25-5.63A3.57,3.57,0,0,0,56.22,62.86Z"/><path class="cls-26" d="M38.29,103.67,23.52,39.54,43.91,102a2,2,0,0,1-1.33,2.6l-1.81.51A2,2,0,0,1,38.29,103.67Z"/><circle class="cls-27" cx="22.03" cy="56.77" r="4.75"/><ellipse class="cls-7" cx="21.89" cy="56.29" rx="4.58" ry="4.07" transform="matrix(0.96, -0.27, 0.27, 0.96, -14.53, 8.11)"/><circle class="cls-8" cx="19.72" cy="55.49" r="1.36"/><circle class="cls-8" cx="23.03" cy="55.96" r="0.68"/><line class="cls-9" x1="19.95" y1="60.01" x2="20.27" y2="61.15"/><line class="cls-9" x1="23.16" y1="60.15" x2="23.44" y2="61.13"/><line class="cls-9" x1="25.49" y1="58.43" x2="25.86" y2="59.74"/><circle class="cls-27" cx="34.3" cy="53.18" r="4.75"/><ellipse class="cls-7" cx="34.16" cy="52.7" rx="4.58" ry="4.07" transform="translate(-13.08 11.32) rotate(-15.84)"/><circle class="cls-8" cx="31.99" cy="51.9" r="1.36"/><circle class="cls-8" cx="35.3" cy="52.37" r="0.68"/><line class="cls-9" x1="32.22" y1="56.42" x2="32.54" y2="57.56"/><line class="cls-9" x1="35.43" y1="56.56" x2="35.71" y2="57.54"/><line class="cls-9" x1="37.76" y1="54.84" x2="38.13" y2="56.15"/><path d="M24.57,65A6.06,6.06,0,0,0,26.2,67.7a3.19,3.19,0,0,1,5.48,1.24,2.7,2.7,0,0,1,.08.39l.45-.1a6.17,6.17,0,0,0,4.26-7.64Z"/><path class="cls-3" d="M27.73,66.73a3.18,3.18,0,0,0-1.53,1,6.15,6.15,0,0,0,5.56,1.63,2.7,2.7,0,0,0-.08-.39A3.2,3.2,0,0,0,27.73,66.73Z"/><ellipse class="cls-5" cx="40.46" cy="58.87" rx="1.86" ry="0.85" transform="translate(-14.53 13.28) rotate(-15.84)"/><ellipse class="cls-5" cx="19.26" cy="64.89" rx="1.86" ry="0.85" transform="translate(-16.98 7.72) rotate(-15.84)"/><path class="cls-28" d="M132.55,122.78V104.2a1.88,1.88,0,0,1,1.88-1.88l50.59,0a11.17,11.17,0,0,1,11.18,11.16h0A11.17,11.17,0,0,1,185,124.63l-50.59,0A1.89,1.89,0,0,1,132.55,122.78Z"/><path class="cls-29" d="M8.67,144.24l0-61.35a9.6,9.6,0,0,1,9.6-9.61l93.85-.06c13.07,0,24.16,19.15,27.91,26.45a12.54,12.54,0,0,1,1.36,5.64v17a9.8,9.8,0,0,1-1,4.38c-3.4,6.76-14.73,27.1-28.19,27.11l-93.85.05A9.59,9.59,0,0,1,8.67,144.24Z"/><rect class="cls-30" x="23.85" y="73.27" width="89.57" height="80.5"/><rect class="cls-30" x="147.58" y="102.41" width="16.66" height="21.99"/><polygon class="cls-31" points="74.89 94.84 98.31 108.37 74.89 121.89 51.47 135.4 51.47 108.36 51.48 81.31 74.89 94.84"/></g><rect class="cls-2" x="30.69" y="4.94" width="65.7" height="4.69" rx="1.88"/><path class="cls-3" d="M95.82,8.32H31.26l-7.39,10a6.89,6.89,0,0,0-1.35,4.08V85.6h82.8V22.51a6.86,6.86,0,0,0-1.52-4.3Z"/><rect class="cls-2" x="31.42" y="135.52" width="65.7" height="4.18" rx="1.88"/><path class="cls-3" d="M32,135.72H96.56l7.38-10a6.82,6.82,0,0,0,1.35-4.08V58.43H22.5v63.1A6.82,6.82,0,0,0,24,125.82Z"/><rect class="cls-2" x="75.69" y="6.8" width="14.81" height="132.9"/><path class="cls-4" d="M64.19,55.53c6.82,0,11.19,4.75,11.74,11.32H77.4a13.21,13.21,0,1,0-26.41,0h1.58C53.43,60.59,57.7,55.53,64.19,55.53Z"/><ellipse class="cls-5" cx="33.4" cy="56.98" rx="3.65" ry="1.66"/><ellipse class="cls-5" cx="98.34" cy="56.03" rx="3.65" ry="1.66"/><circle class="cls-6" cx="53.08" cy="37.05" r="8.65"/><ellipse class="cls-7" cx="53.08" cy="36.12" rx="8.34" ry="7.42"/><circle class="cls-8" cx="49.68" cy="33.65" r="2.47"/><circle class="cls-8" cx="55.25" cy="36.12" r="1.24"/><line class="cls-9" x1="47.83" y1="41.69" x2="47.83" y2="43.85"/><line class="cls-9" x1="53.39" y1="43.54" x2="53.39" y2="45.4"/><line class="cls-9" x1="58.34" y1="41.69" x2="58.34" y2="44.16"/><circle class="cls-6" cx="74.72" cy="37.67" r="8.65"/><ellipse class="cls-7" cx="74.72" cy="36.74" rx="8.34" ry="7.42"/><circle class="cls-8" cx="71.32" cy="34.27" r="2.47"/><circle class="cls-8" cx="76.88" cy="36.74" r="1.24"/><line class="cls-9" x1="69.46" y1="42.31" x2="69.46" y2="44.47"/><line class="cls-9" x1="75.03" y1="44.16" x2="75.03" y2="46.01"/><line class="cls-9" x1="79.97" y1="42.31" x2="79.97" y2="44.78"/><circle class="cls-10" cx="83.79" cy="161.05" r="25.95"/><circle class="cls-11" cx="83.79" cy="161.05" r="23.07"/><circle class="cls-12" cx="83.79" cy="161.05" r="20.69"/><ellipse class="cls-13" cx="83.07" cy="148.62" rx="1.53" ry="2.8" transform="translate(-47.37 39.2) rotate(-20.81)"/><ellipse class="cls-13" cx="80.14" cy="175.08" rx="1.53" ry="2.8" transform="translate(-56.97 39.88) rotate(-20.81)"/><ellipse class="cls-13" cx="95.21" cy="160.82" rx="1.53" ry="2.8" transform="translate(-50.92 44.31) rotate(-20.81)"/><ellipse class="cls-13" cx="75.3" cy="158.68" rx="2.8" ry="1.53" transform="translate(-99.96 147.12) rotate(-60.84)"/><ellipse class="cls-13" cx="85.1" cy="167.75" rx="2.8" ry="1.53" transform="translate(-102.86 160.34) rotate(-60.84)"/><ellipse class="cls-13" cx="90.49" cy="155.04" rx="2.8" ry="1.53" transform="translate(-88.99 158.53) rotate(-60.84)"/><ellipse class="cls-13" cx="70.6" cy="151.1" rx="1.53" ry="2.8" transform="translate(-95.75 139.13) rotate(-60.84)"/><ellipse class="cls-13" cx="69.6" cy="167.27" rx="1.53" ry="2.8" transform="translate(-110.38 146.55) rotate(-60.84)"/><ellipse class="cls-13" cx="82.88" cy="159.93" rx="1.53" ry="2.8" transform="translate(-97.17 154.39) rotate(-60.84)"/><ellipse class="cls-13" cx="89.78" cy="176.45" rx="1.53" ry="2.8" transform="translate(-108.05 168.88) rotate(-60.84)"/><ellipse class="cls-13" cx="97.84" cy="153.86" rx="1.53" ry="2.8" transform="translate(-84.19 164.34) rotate(-60.84)"/><ellipse class="cls-13" cx="97.02" cy="167.88" rx="1.53" ry="2.8" transform="translate(-96.85 170.81) rotate(-60.84)"/><ellipse class="cls-13" cx="91.95" cy="146.63" rx="1.53" ry="2.8" transform="translate(-16.85 12.03) rotate(-6.86)"/><ellipse class="cls-13" cx="77.38" cy="146.48" rx="2.8" ry="1.53" transform="translate(-88.24 142.68) rotate(-60.84)"/><ellipse class="cls-13" cx="75.02" cy="170.95" rx="2.8" ry="1.53" transform="translate(-110.82 153.17) rotate(-60.84)"/><ellipse class="cls-13" cx="68.13" cy="160.37" rx="2.8" ry="1.53" transform="translate(-105.11 141.73) rotate(-60.84)"/><circle class="cls-14" cx="83.68" cy="152.24" r="4.13"/><ellipse class="cls-7" cx="84.03" cy="151.96" rx="3.54" ry="3.98" transform="translate(-77.15 87.34) rotate(-39.21)"/><circle class="cls-8" cx="83.92" cy="149.96" r="1.18"/><circle class="cls-8" cx="84.68" cy="152.76" r="0.59"/><line class="cls-9" x1="80.39" y1="151.7" x2="79.59" y2="152.35"/><line class="cls-9" x1="81.38" y1="154.31" x2="80.69" y2="154.87"/><line class="cls-9" x1="83.56" y1="155.58" x2="82.64" y2="156.33"/><circle class="cls-14" cx="92.26" cy="162.75" r="4.13"/><ellipse class="cls-7" cx="92.61" cy="162.47" rx="3.54" ry="3.98" transform="translate(-81.86 95.13) rotate(-39.21)"/><circle class="cls-8" cx="92.49" cy="160.47" r="1.18"/><circle class="cls-8" cx="93.26" cy="163.27" r="0.59"/><line class="cls-9" x1="88.96" y1="162.21" x2="88.16" y2="162.86"/><line class="cls-9" x1="89.96" y1="164.82" x2="89.27" y2="165.38"/><line class="cls-9" x1="92.13" y1="166.09" x2="91.22" y2="166.84"/><path class="cls-4" d="M80.93,163.87a4.54,4.54,0,0,1-.54,6.43l.37.45a5.22,5.22,0,1,0-6.6-8.09l.4.48C76.69,161.84,79.31,161.88,80.93,163.87Z"/><ellipse class="cls-5" cx="75.12" cy="152.36" rx="0.81" ry="1.77" transform="translate(-79.41 81.8) rotate(-39.21)"/><ellipse class="cls-5" cx="90.77" cy="171.54" rx="0.81" ry="1.77" transform="translate(-88.01 96.01) rotate(-39.21)"/><path class="cls-15" d="M68.35,151.47a26.26,26.26,0,1,1-52.51,0"/><path class="cls-16" d="M66.74,151.59a24.53,24.53,0,1,1-49,0"/><path class="cls-17" d="M66.87,151.59a24.65,24.65,0,0,1-49.3,0m.25,0a24.4,24.4,0,0,0,48.8,0"/><path class="cls-17" d="M66.87,151.59a24.65,24.65,0,0,1-49.3,0m.25,0a24.4,24.4,0,0,0,48.8,0"/><path class="cls-18" d="M66.74,151.59a24.53,24.53,0,1,1-49,0"/><path class="cls-19" d="M66.87,151.59a24.65,24.65,0,0,1-49.3,0m.25,0a24.4,24.4,0,0,0,48.8,0"/><path class="cls-20" d="M39.83,152.58h-20a22.32,22.32,0,0,0,5.87,14.14Z"/><path class="cls-20" d="M43.21,154v20a22.37,22.37,0,0,0,14.14-5.87Z"/><path class="cls-20" d="M41.23,154,27.09,168.12A22.32,22.32,0,0,0,41.23,174Z"/><path class="cls-20" d="M44.61,152.58l14.14,14.14a22.31,22.31,0,0,0,5.86-14.14Z"/><path class="cls-21" d="M68.6,151.59h0Z"/><rect class="cls-15" x="15.84" y="151.22" width="52.52" height="0.6"/><circle class="cls-14" cx="38.13" cy="158.9" r="3.47"/><ellipse class="cls-7" cx="38.13" cy="158.53" rx="3.34" ry="2.97"/><circle class="cls-8" cx="36.77" cy="157.54" r="0.99"/><circle class="cls-8" cx="39" cy="158.53" r="0.5"/><line class="cls-9" x1="36.03" y1="160.76" x2="36.03" y2="161.63"/><line class="cls-9" x1="38.25" y1="161.5" x2="38.25" y2="162.24"/><line class="cls-9" x1="40.24" y1="160.76" x2="40.24" y2="161.75"/><circle class="cls-14" cx="47.54" cy="159.15" r="3.47"/><ellipse class="cls-7" cx="47.54" cy="158.78" rx="3.34" ry="2.97"/><circle class="cls-8" cx="46.18" cy="157.79" r="0.99"/><circle class="cls-8" cx="48.41" cy="158.78" r="0.5"/><line class="cls-9" x1="45.44" y1="161.01" x2="45.44" y2="161.87"/><line class="cls-9" x1="47.67" y1="161.75" x2="47.67" y2="162.49"/><line class="cls-9" x1="49.65" y1="161.01" x2="49.65" y2="162"/><path class="cls-9" d="M46.92,167.2a4.21,4.21,0,1,1-8.42,0"/><path class="cls-9" d="M39.75,165.36a1.48,1.48,0,1,1-2.87.75"/><path class="cls-9" d="M48.78,166.05a1.48,1.48,0,1,1-2.9-.64"/><ellipse class="cls-5" cx="33.3" cy="164.23" rx="1.36" ry="0.62"/><ellipse class="cls-5" cx="51.38" cy="164.47" rx="1.36" ry="0.62"/><path class="cls-22" d="M109.08,88.21,86,80A9,9,0,0,1,80.6,68.57l8.07-23.49a8.76,8.76,0,0,1,11.22-5.51L123,47.78a9,9,0,0,1,5.41,11.43L120.31,82.7A8.78,8.78,0,0,1,109.08,88.21Z"/><path class="cls-23" d="M86.26,75.58a1.56,1.56,0,0,1-1.5,2.12c-2-.1-4.56-1-3.43-5.56C82.65,66.85,85.09,72.39,86.26,75.58Z"/><path class="cls-24" d="M87.89,75.28a1.55,1.55,0,0,1-1.5,2.11c-2-.09-4.56-1-3.43-5.56C84.28,66.55,86.72,72.08,87.89,75.28Z"/><path class="cls-23" d="M123,52.07a1.54,1.54,0,0,1,2-1.65c1.92.61,4.14,2.2,1.92,6.26C124.26,61.45,123.29,55.46,123,52.07Z"/><path class="cls-24" d="M121.31,51.94a1.55,1.55,0,0,1,2-1.65c1.92.61,4.14,2.2,1.92,6.26C122.61,61.32,121.64,55.34,121.31,51.94Z"/><ellipse class="cls-14" cx="99.18" cy="55.22" rx="3.68" ry="3.75"/><ellipse class="cls-7" cx="99.31" cy="54.84" rx="3.2" ry="3.56" transform="translate(10.8 125.8) rotate(-67.63)"/><ellipse class="cls-8" cx="98.29" cy="53.34" rx="1.05" ry="1.07"/><ellipse class="cls-8" cx="100.18" cy="55.15" rx="0.53" ry="0.54"/><line class="cls-9" x1="96.42" y1="56.36" x2="96.11" y2="57.24"/><line class="cls-9" x1="98.39" y1="57.91" x2="98.13" y2="58.67"/><line class="cls-9" x1="100.64" y1="57.86" x2="100.29" y2="58.87"/><path class="cls-4" d="M113.59,58.06a3.27,3.27,0,0,1,2,4.13l.38.14a3.77,3.77,0,0,0-2.25-4.78,3.67,3.67,0,0,0-4.69,2.3l.41.15A3.33,3.33,0,0,1,113.59,58.06Z"/><path d="M97.18,71.78l.08-.25c.09,0,8.43,2.76,10.64,1.27a1.08,1.08,0,0,0,.5-.82l.26,0a1.34,1.34,0,0,1-.62,1C105.73,74.58,97.53,71.9,97.18,71.78Z"/><path d="M108.8,72.22a1.5,1.5,0,0,1-.34-.16,1.76,1.76,0,0,1-.55-2.4l.22.14a1.49,1.49,0,0,0,.47,2,1.4,1.4,0,0,0,1.09.18,1.43,1.43,0,0,0,.9-.65l.23.14a1.68,1.68,0,0,1-1.07.77A1.62,1.62,0,0,1,108.8,72.22Z"/><ellipse class="cls-5" cx="116.23" cy="68.21" rx="0.67" ry="1.45" transform="translate(12.72 154.52) rotate(-70.23)"/><ellipse class="cls-5" cx="91.66" cy="59.47" rx="0.67" ry="1.45" transform="translate(4.7 125.61) rotate(-70.23)"/><path class="cls-25" d="M53.68,64.19a3.51,3.51,0,0,0-1.51-2,3.51,3.51,0,0,0-2-4.88,3.4,3.4,0,0,0,0-1.87A3.54,3.54,0,0,0,47.63,53a3.55,3.55,0,0,0-.06-1.71,3.51,3.51,0,0,0-3.11-2.54,3.49,3.49,0,0,0-.11-1.43,3.53,3.53,0,0,0-3-2.54,3.47,3.47,0,0,0-.12-1.1,3.53,3.53,0,0,0-3.75-2.55,3.52,3.52,0,0,0-4.09-3.76,3.13,3.13,0,0,0-.13-.85A3.52,3.52,0,0,0,29.36,34a3.18,3.18,0,0,0-.1-.52,3.53,3.53,0,0,0-3.9-2.53,4.76,4.76,0,0,0-.1-.52,3.52,3.52,0,0,0-4.2-2.47,1,1,0,0,0,0-.17,3.52,3.52,0,1,0-6.78,1.92,3.35,3.35,0,0,0,.53,1.09A3.52,3.52,0,0,0,12.62,35a4.59,4.59,0,0,0,.17.48,3.52,3.52,0,0,0-2.3,4.31,2.89,2.89,0,0,0,.22.58,4,4,0,0,0-.89.13,3.52,3.52,0,0,0-1.68,5.72,3.52,3.52,0,0,0-2.28,4.3,3.45,3.45,0,0,0,1.33,1.89,3.53,3.53,0,0,0-2.36,4.33,3.43,3.43,0,0,0,.81,1.43,3.51,3.51,0,0,0-.7,5.67c0,.05,0,.09,0,.13A3.55,3.55,0,0,0,5,69.07a3.51,3.51,0,0,0,.85,5.2,3.51,3.51,0,0,0,1.48,4.64A3.53,3.53,0,0,0,9.61,84.1,3.52,3.52,0,0,0,12.31,89a3.48,3.48,0,0,0-.12,2.28,3.52,3.52,0,0,0,3.57,2.56,3.39,3.39,0,0,0,.06,1.64,3.53,3.53,0,0,0,3.75,2.54A3.5,3.5,0,0,0,24,101.73l.22-.08a.57.57,0,0,0,.13.08,3.33,3.33,0,0,0,.13,1.08,3.53,3.53,0,0,0,4.35,2.43,3.7,3.7,0,0,0,.5-.19,3.52,3.52,0,0,0,6.47,0,3.52,3.52,0,0,0,5.71-1.59l.3-.15a3.52,3.52,0,0,0,5.54-3.37,3.29,3.29,0,0,0,.53-.1,3.53,3.53,0,0,0,2.43-4.35,3.4,3.4,0,0,0-.35-.8,3.52,3.52,0,0,0,2.06-4.23,4.68,4.68,0,0,0-.18-.48,3.51,3.51,0,0,0,1.5-5.74,3.53,3.53,0,0,0,1.7-4,3.61,3.61,0,0,0-.66-1.26,3.53,3.53,0,0,0,1.31-3.81,3.48,3.48,0,0,0-1.57-2.05,3.52,3.52,0,0,0-1.24-5.57A3.54,3.54,0,0,0,53.68,64.19Z"/><path class="cls-26" d="M35.93,104.58,21.32,41.11,41.49,103a2,2,0,0,1-1.31,2.57l-1.79.51A2,2,0,0,1,35.93,104.58Z"/><circle class="cls-27" cx="19.84" cy="58.17" r="4.7"/><ellipse class="cls-7" cx="19.7" cy="57.68" rx="4.53" ry="4.03" transform="translate(-14.99 7.57) rotate(-15.84)"/><circle class="cls-8" cx="17.56" cy="56.89" r="1.34"/><circle class="cls-8" cx="20.83" cy="57.36" r="0.67"/><line class="cls-9" x1="17.78" y1="61.37" x2="18.1" y2="62.5"/><line class="cls-9" x1="20.96" y1="61.51" x2="21.24" y2="62.48"/><line class="cls-9" x1="23.27" y1="59.81" x2="23.64" y2="61.1"/><circle class="cls-27" cx="31.98" cy="54.61" r="4.7"/><ellipse class="cls-7" cx="31.84" cy="54.13" rx="4.53" ry="4.03" transform="translate(-13.56 10.74) rotate(-15.84)"/><circle class="cls-8" cx="29.7" cy="53.34" r="1.34"/><circle class="cls-8" cx="32.97" cy="53.81" r="0.67"/><line class="cls-9" x1="29.92" y1="57.81" x2="30.25" y2="58.94"/><line class="cls-9" x1="33.1" y1="57.96" x2="33.38" y2="58.93"/><line class="cls-9" x1="35.41" y1="56.26" x2="35.78" y2="57.55"/><path d="M22.35,66.28A6.09,6.09,0,0,0,24,69a3.22,3.22,0,0,1,1.51-1,3.17,3.17,0,0,1,3.91,2.19,2.74,2.74,0,0,1,.09.39l.44-.1a6.14,6.14,0,0,0,4.22-7.57Z"/><path class="cls-3" d="M25.48,68A3.22,3.22,0,0,0,24,69a6.12,6.12,0,0,0,5.51,1.62,2.74,2.74,0,0,0-.09-.39A3.17,3.17,0,0,0,25.48,68Z"/><ellipse class="cls-5" cx="38.08" cy="60.24" rx="1.85" ry="0.84" transform="translate(-14.99 12.68) rotate(-15.84)"/><ellipse class="cls-5" cx="17.1" cy="66.2" rx="1.85" ry="0.84" transform="translate(-17.42 7.18) rotate(-15.84)"/><path class="cls-32" d="M129.23,123.63V105a1.73,1.73,0,0,1,1.73-1.73l51,0a10.27,10.27,0,0,1,10.28,10.27V115a10.28,10.28,0,0,1-10.27,10.29l-51,0A1.74,1.74,0,0,1,129.23,123.63Z"/><path class="cls-33" d="M6.62,144.74,6.58,84a9.5,9.5,0,0,1,9.5-9.51L109,74.44c12.94,0,23.91,19,27.62,26.18a12.3,12.3,0,0,1,1.34,5.58V123a9.55,9.55,0,0,1-1,4.33c-3.35,6.7-14.57,26.83-27.9,26.83l-92.88.06A9.5,9.5,0,0,1,6.62,144.74Z"/><rect class="cls-30" x="21.64" y="74.5" width="88.65" height="79.68"/><rect class="cls-30" x="144.1" y="103.33" width="16.48" height="21.76"/><polygon class="cls-31" points="72.16 95.84 95.34 109.23 72.16 122.61 48.97 135.99 48.98 109.22 48.98 82.46 72.16 95.84"/></svg>
