<svg id="Layer_1" data-name="Layer 1" xmlns="http://www.w3.org/2000/svg" width="50" height="70" viewBox="0 0 50 70"><title>point_ui</title><path d="M36.93,3.31q4,.89,6.29,8.39a61.56,61.56,0,0,1,2.1,17.41A87.64,87.64,0,0,1,42,53Q37.26,69.84,28.14,69.83a11.25,11.25,0,0,1-3.54-.72c-2.26-.86-3.5-1.32-3.71-1.38-1.45-.59-3.85-1.47-7.18-2.66q-4-1.36-6.61-11.44A87.12,87.12,0,0,1,4.68,32.1a72.88,72.88,0,0,1,2.5-20.48q2.75-9.51,8-11.37a2.89,2.89,0,0,1,.65-.08,2.85,2.85,0,0,1,1.37.48c.54.32.94.43,1.21.32a14.93,14.93,0,0,1,4.84-.8,25.22,25.22,0,0,1,6.93,1.21C34.19,2.56,36.45,3.21,36.93,3.31ZM26.77,8.47q-3.87,0-6,8.71A70.87,70.87,0,0,0,19,33.55a82.3,82.3,0,0,0,1.7,16q1.69,8.55,3.3,8.55,3.15,0,5.16-9.84a106.3,106.3,0,0,0,1.7-20.15,79.68,79.68,0,0,0-1-13.71C29.17,10.44,28.12,8.47,26.77,8.47Z"/></svg>
