<svg xmlns="http://www.w3.org/2000/svg" xmlns:xlink="http://www.w3.org/1999/xlink" width="1920" height="1080" viewBox="0 0 1920 1080"><defs><style>.cls-1{isolation:isolate;}.cls-2{fill:#2c0605;}.cls-3{fill:#7d2113;}.cls-4{fill:#420700;}.cls-5,.cls-6{mix-blend-mode:overlay;}.cls-10,.cls-17,.cls-19,.cls-20,.cls-26,.cls-38,.cls-42,.cls-44,.cls-6,.cls-7{fill:none;}.cls-6{stroke:#2c0605;stroke-width:0.5px;}.cls-10,.cls-13,.cls-14,.cls-15,.cls-17,.cls-18,.cls-19,.cls-20,.cls-21,.cls-23,.cls-24,.cls-25,.cls-26,.cls-30,.cls-37,.cls-38,.cls-6,.cls-7{stroke-miterlimit:10;}.cls-7{stroke:#561f0a;stroke-width:5px;opacity:0.53;}.cls-8{fill:#682707;}.cls-9{fill:#06ed68;}.cls-10{stroke:#843306;}.cls-11,.cls-21{fill:#00df64;}.cls-12{fill:#fcfcfc;}.cls-13,.cls-14,.cls-22,.cls-25{fill:#fff;}.cls-13,.cls-14,.cls-15,.cls-18,.cls-19,.cls-20,.cls-21{stroke:#fff;}.cls-14,.cls-20{opacity:0;}.cls-15{fill:#bbff4d;}.cls-16{fill:#843306;}.cls-17{stroke:#fcfcfc;}.cls-23{fill:#f540d7;}.cls-23,.cls-24,.cls-25,.cls-26,.cls-30,.cls-37{stroke:#000;}.cls-27{fill:#f566d7;}.cls-28{fill:#00df06;}.cls-29{fill:#00f106;}.cls-30{fill:#8611ab;}.cls-31{fill:#ff002b;}.cls-32{fill:#b0dfe5;}.cls-33{fill:#24898e;}.cls-34{fill:#ccfeff;}.cls-35{fill:#1d1d1b;}.cls-36{fill:#75cead;}.cls-37{fill:#c890d7;}.cls-38{stroke:#d2d6d4;}.cls-39{fill:url(#linear-gradient);}.cls-40{fill:#fbcb43;}.cls-41{fill:#f5b400;}.cls-42{stroke:#f5b400;stroke-linejoin:round;stroke-width:3px;}.cls-43{fill:url(#linear-gradient-2);}.cls-45{fill:#a59a9a;}.cls-46{fill:#b5acac;}.cls-47{fill:#7c7575;}</style><linearGradient id="linear-gradient" x1="1571.81" y1="7.56" x2="1570.26" y2="467.8" gradientUnits="userSpaceOnUse"><stop offset="0" stop-color="#fbcb43" stop-opacity="0.7"/><stop offset="1" stop-color="#fbcb43" stop-opacity="0"/></linearGradient><linearGradient id="linear-gradient-2" x1="1788.81" y1="7.56" x2="1787.26" y2="467.8" xlink:href="#linear-gradient"/></defs><title>spille_screen</title><g class="cls-1"><g id="Layer_1" data-name="Layer 1"><rect class="cls-2" x="0.1" width="1919" height="1080.66"/><rect class="cls-3" x="-0.86" y="855.24" width="1920" height="63.87"/><rect class="cls-4" x="-0.86" y="919.12" width="1920" height="12.69"/><rect class="cls-2" x="-0.86" y="931.81" width="1921" height="151.85"/><rect class="cls-3" x="-1.47" y="828.66" width="1920" height="70.59"/><rect class="cls-4" x="-1.47" y="899.24" width="1920" height="14.02"/><rect class="cls-2" x="-1.47" y="913.27" width="1921" height="167.81"/><g class="cls-5"><ellipse class="cls-6" cx="1226.03" cy="863.84" rx="959.5" ry="33.66"/><ellipse class="cls-6" cx="1226.03" cy="863.84" rx="822.43" ry="28.85"/><ellipse class="cls-6" cx="1226.03" cy="863.84" rx="716.29" ry="25.13"/><ellipse class="cls-6" cx="1226.03" cy="863.84" rx="636.34" ry="22.32"/><ellipse class="cls-6" cx="1226.03" cy="863.84" rx="523.06" ry="18.35"/><ellipse class="cls-6" cx="1226.03" cy="863.84" rx="429.78" ry="15.08"/><ellipse class="cls-6" cx="1226.03" cy="863.84" rx="309.84" ry="10.87"/><ellipse class="cls-6" cx="1226.03" cy="863.84" rx="199.38" ry="6.99"/></g><g class="cls-5"><ellipse class="cls-6" cx="415.03" cy="863.84" rx="959.5" ry="33.66"/><ellipse class="cls-6" cx="415.03" cy="863.84" rx="822.43" ry="28.85"/><ellipse class="cls-6" cx="415.03" cy="863.84" rx="716.29" ry="25.13"/><ellipse class="cls-6" cx="415.03" cy="863.84" rx="636.34" ry="22.32"/><ellipse class="cls-6" cx="415.03" cy="863.84" rx="523.06" ry="18.35"/><ellipse class="cls-6" cx="415.03" cy="863.84" rx="429.78" ry="15.08"/><ellipse class="cls-6" cx="415.03" cy="863.84" rx="309.84" ry="10.87"/><ellipse class="cls-6" cx="415.03" cy="863.84" rx="199.38" ry="6.99"/></g><rect class="cls-7" x="139.98" y="930.53" width="154.05" height="133.76"/><rect class="cls-7" x="151.03" y="936.92" width="131.95" height="121.5"/><rect class="cls-7" x="460.2" y="930.53" width="154.05" height="133.76"/><rect class="cls-7" x="471.25" y="936.92" width="131.95" height="121.5"/><rect class="cls-7" x="788.49" y="930.53" width="154.05" height="133.76"/><rect class="cls-7" x="799.54" y="936.92" width="131.95" height="121.5"/><rect class="cls-7" x="946.07" y="930.53" width="154.05" height="133.76"/><rect class="cls-7" x="957.12" y="936.92" width="131.95" height="121.5"/><rect class="cls-7" x="1261.47" y="930.68" width="154.05" height="133.76"/><rect class="cls-7" x="1272.52" y="937.07" width="131.95" height="121.5"/><rect class="cls-7" x="1581.68" y="930.68" width="154.05" height="133.76"/><rect class="cls-7" x="1592.73" y="937.07" width="131.95" height="121.5"/><rect class="cls-8" x="26.1" y="47.66" width="535" height="275"/><path d="M522.58,86.66H477.1a21,21,0,0,0-21-21H53.71A14.61,14.61,0,0,0,39.1,80.27v40.78a14.61,14.61,0,0,0,14.61,14.61H456.1a21,21,0,0,0,21-21h45.48a7.52,7.52,0,0,0,7.52-7.52v-13A7.51,7.51,0,0,0,522.58,86.66Z"/><path class="cls-9" d="M53.71,65.66A14.61,14.61,0,0,0,39.1,80.27v40.78a14.61,14.61,0,0,0,14.61,14.61H221.1v-70Z"/><path d="M185.64,212.57q4,.88,6.29,8.38a61.63,61.63,0,0,1,2.1,17.42,87.62,87.62,0,0,1-3.31,23.86q-4.75,16.86-13.87,16.85a11.25,11.25,0,0,1-3.54-.72c-2.26-.86-3.5-1.32-3.71-1.37-1.45-.59-3.85-1.48-7.18-2.66q-4-1.38-6.61-11.45a87.12,87.12,0,0,1-2.42-21.53,72.88,72.88,0,0,1,2.5-20.48q2.75-9.51,8-11.37a2.89,2.89,0,0,1,.65-.08,2.85,2.85,0,0,1,1.37.48,1.52,1.52,0,0,0,1.21.33,14.68,14.68,0,0,1,4.84-.81,25.22,25.22,0,0,1,6.93,1.21Q184.92,212.4,185.64,212.57Zm-10.16,5.16q-3.87,0-6,8.7a70.87,70.87,0,0,0-1.7,16.37,82.39,82.39,0,0,0,1.7,16q1.69,8.53,3.3,8.54,3.15,0,5.16-9.83a106.49,106.49,0,0,0,1.7-20.16,79.68,79.68,0,0,0-1-13.71C177.87,219.69,176.83,217.73,175.48,217.73Z"/><path d="M395.39,273.92a5.76,5.76,0,0,1-1.21,3.59,3.49,3.49,0,0,1-3.07,1.49c-.86-.05-2.95-1.19-6.29-3.42s-5-3.78-5.08-4.64a5.94,5.94,0,0,1,.25-1.49,6.19,6.19,0,0,0,.24-1.41V234.17q0-1.84-3.63-2.66-4-1-4.6-2.66a5,5,0,0,1-.32-1.69,7.53,7.53,0,0,1,1.77-4.19,43.1,43.1,0,0,0,2.91-4.28c.64-2.09,1.29-4.19,1.93-6.29q1.36-3.54,4.76-3.54A13.35,13.35,0,0,1,390,211c2.58,1.56,3.87,3.34,3.87,5.32v53.46a4.29,4.29,0,0,0,.77,2.06A4.3,4.3,0,0,1,395.39,273.92Z"/><path d="M459.4,218.29a2.83,2.83,0,0,1-1,2.18A4.33,4.33,0,0,1,456,222a6.13,6.13,0,0,1-2.9-.57,22.13,22.13,0,0,0-3.47-1,19.3,19.3,0,0,0-7.18.88A24.75,24.75,0,0,0,433.2,226v8.79a15.82,15.82,0,0,1,6.53-1.53q4.59,0,11.29,5.16t6.69,9.19a44.26,44.26,0,0,1-6.33,23.1q-6.33,10.61-14.07,10.6-3.94,0-12.25-5.8t-8.63-9.2a4.67,4.67,0,0,1,1-3.26,3.5,3.5,0,0,1,2.74-1.65c1.66-.11,4,1.18,6.93,3.87a62.16,62.16,0,0,0,5.16,4.67q4.2-2.34,8.55-10.32,4.19-7.65,4.19-12c0-1.77-.86-2.66-2.58-2.66s-3.82,1.15-6.61,3.47a42.17,42.17,0,0,1-4.43,3.46c-1.08.06-3.1-.62-6.05-2a19.3,19.3,0,0,1-6.13-4,2.57,2.57,0,0,1-.56-1.62,9.19,9.19,0,0,1,.2-1.49A10.39,10.39,0,0,0,419,241V216.76a3.3,3.3,0,0,1,1.49-2.42,7,7,0,0,1,3.27-1.53,2.65,2.65,0,0,1,1.29.2,4,4,0,0,0,1.21.28,2,2,0,0,0,.88-.24,63.13,63.13,0,0,1,13.47-4.19,37.74,37.74,0,0,1,7.5-1.05l1.69-.32a2.39,2.39,0,0,1,1.61.4,25.89,25.89,0,0,1,4.76,4.92Q459,216.35,459.4,218.29Z"/><line class="cls-10" x1="-1.18" y1="810.53" x2="1919.32" y2="810.03"/><path d="M1565.15,947.83V1111a16.7,16.7,0,0,1-16.7,16.7H1441.79a16.7,16.7,0,0,1-16.69-16.7V947.83c0-22.74,33.31-42,46-48.49a20.73,20.73,0,0,1,4.6-1.71V821.08a19.42,19.42,0,1,1,38.84,0v76.41a16.59,16.59,0,0,1,3.5,1.3C1529.81,904.7,1565.15,924.41,1565.15,947.83Z"/><path d="M1955.91,887.32V1070a18.7,18.7,0,0,1-18.7,18.7H1817.79a18.69,18.69,0,0,1-18.69-18.7V887.32c0-25.46,37.29-47,51.51-54.29a22.69,22.69,0,0,1,5.15-1.91V745.4a21.75,21.75,0,1,1,43.49,0V831a18,18,0,0,1,3.92,1.45C1916.34,839,1955.91,861.09,1955.91,887.32Z"/><path d="M1701.8,870.77v197.65a20.24,20.24,0,0,1-20.24,20.24H1552.32a20.23,20.23,0,0,1-20.22-20.24V870.77c0-27.55,40.36-50.87,55.75-58.75a24.14,24.14,0,0,1,5.57-2.07V717.19a23.53,23.53,0,1,1,47.06,0v92.59a19.42,19.42,0,0,1,4.25,1.57C1659,818.5,1701.8,842.39,1701.8,870.77Z"/><path d="M1833.8,957.77v197.65a20.24,20.24,0,0,1-20.24,20.24H1684.32a20.23,20.23,0,0,1-20.22-20.24V957.77c0-27.55,40.36-50.87,55.75-58.75a24.14,24.14,0,0,1,5.57-2.07V804.19a23.53,23.53,0,1,1,47.06,0v92.59a19.42,19.42,0,0,1,4.25,1.57C1791,905.5,1833.8,929.39,1833.8,957.77Z"/><circle class="cls-11" cx="1538.28" cy="989.93" r="43.27"/><circle class="cls-12" cx="1538.28" cy="989.93" r="41.25"/><path class="cls-11" d="M1511.24,965.69l23.08,23.08h-32.65A36.47,36.47,0,0,1,1511.24,965.69Z"/><path class="cls-11" d="M1513.53,963.4a36.5,36.5,0,0,1,23.08-9.57v32.65Z"/><path class="cls-11" d="M1562.92,963.4l-23.08,23.08V953.83A36.48,36.48,0,0,1,1562.92,963.4Z"/><path class="cls-11" d="M1565.21,965.69a36.48,36.48,0,0,1,9.58,23.08h-32.66Z"/><path class="cls-13" d="M1511.24,965.69l23.08,23.08h-32.65A36.47,36.47,0,0,1,1511.24,965.69Z"/><path class="cls-13" d="M1513.53,963.4a36.5,36.5,0,0,1,23.08-9.57v32.65Z"/><path class="cls-13" d="M1562.92,963.4l-23.08,23.08V953.83A36.48,36.48,0,0,1,1562.92,963.4Z"/><path class="cls-13" d="M1565.21,965.69a36.48,36.48,0,0,1,9.58,23.08h-32.66Z"/><path class="cls-14" d="M1536.61,953.83v32.65l-23.08-23.08A36.5,36.5,0,0,1,1536.61,953.83Zm-25.37,11.86,23.08,23.08h-32.65A36.47,36.47,0,0,1,1511.24,965.69Zm-9,26.1h32.65l-23.08,23.07A36.42,36.42,0,0,1,1502.23,991.79Zm34.94,34.94a36.46,36.46,0,0,1-23.08-9.58l23.08-23.08Zm37.62-38h-32.66l23.08-23.08A36.48,36.48,0,0,1,1574.79,988.77Zm-35-34.94a36.48,36.48,0,0,1,23.08,9.57l-23.08,23.08Zm.57,72.9V994.07l23.07,23.08A36.43,36.43,0,0,1,1540.41,1026.73Zm25.36-11.87-23.08-23.07h32.66A36.43,36.43,0,0,1,1565.77,1014.86Z"/><path class="cls-15" d="M1574.79,988.77h-32.66l23.08-23.08A36.48,36.48,0,0,1,1574.79,988.77Z"/><path class="cls-15" d="M1536.61,953.83v32.65l-23.08-23.08A36.5,36.5,0,0,1,1536.61,953.83Z"/><path class="cls-15" d="M1562.92,963.4l-23.08,23.08V953.83A36.48,36.48,0,0,1,1562.92,963.4Z"/><path class="cls-15" d="M1534.32,988.77h-32.65a36.47,36.47,0,0,1,9.57-23.08Z"/><path class="cls-11" d="M1511.8,1014.86a36.42,36.42,0,0,1-9.57-23.07h32.65Z"/><path class="cls-11" d="M1514.09,1017.15l23.08-23.08v32.66A36.46,36.46,0,0,1,1514.09,1017.15Z"/><path class="cls-11" d="M1563.48,1017.15a36.43,36.43,0,0,1-23.07,9.58V994.07Z"/><path class="cls-11" d="M1565.77,1014.86l-23.08-23.07h32.66A36.43,36.43,0,0,1,1565.77,1014.86Z"/><path class="cls-13" d="M1511.8,1014.86a36.42,36.42,0,0,1-9.57-23.07h32.65Z"/><path class="cls-13" d="M1514.09,1017.15l23.08-23.08v32.66A36.46,36.46,0,0,1,1514.09,1017.15Z"/><path class="cls-13" d="M1563.48,1017.15a36.43,36.43,0,0,1-23.07,9.58V994.07Z"/><path class="cls-13" d="M1565.77,1014.86l-23.08-23.07h32.66A36.43,36.43,0,0,1,1565.77,1014.86Z"/><path class="cls-15" d="M1534.88,991.79l-23.08,23.07a36.42,36.42,0,0,1-9.57-23.07Z"/><path class="cls-15" d="M1563.48,1017.15a36.43,36.43,0,0,1-23.07,9.58V994.07Z"/><path class="cls-15" d="M1537.17,994.07v32.66a36.46,36.46,0,0,1-23.08-9.58Z"/><path class="cls-15" d="M1575.35,991.79a36.43,36.43,0,0,1-9.58,23.07l-23.08-23.07Z"/><circle class="cls-11" cx="1680.27" cy="990.93" r="44.51"/><circle class="cls-12" cx="1680.27" cy="990.93" r="42.43"/><path class="cls-11" d="M1652.46,966l23.75,23.74h-33.6A37.49,37.49,0,0,1,1652.46,966Z"/><path class="cls-11" d="M1654.81,963.64a37.57,37.57,0,0,1,23.75-9.85v33.59Z"/><path class="cls-11" d="M1705.63,963.64l-23.75,23.74V953.79A37.55,37.55,0,0,1,1705.63,963.64Z"/><path class="cls-11" d="M1708,966a37.49,37.49,0,0,1,9.85,23.74h-33.59Z"/><path class="cls-13" d="M1652.46,966l23.75,23.74h-33.6A37.49,37.49,0,0,1,1652.46,966Z"/><path class="cls-13" d="M1654.81,963.64a37.57,37.57,0,0,1,23.75-9.85v33.59Z"/><path class="cls-13" d="M1705.63,963.64l-23.75,23.74V953.79A37.55,37.55,0,0,1,1705.63,963.64Z"/><path class="cls-13" d="M1708,966a37.49,37.49,0,0,1,9.85,23.74h-33.59Z"/><path class="cls-14" d="M1678.56,953.79v33.59l-23.75-23.74A37.57,37.57,0,0,1,1678.56,953.79Z"/><path class="cls-14" d="M1652.46,966l23.75,23.74h-33.6A37.49,37.49,0,0,1,1652.46,966Z"/><path class="cls-14" d="M1643.19,992.84h33.59L1653,1016.58A37.44,37.44,0,0,1,1643.19,992.84Z"/><path class="cls-14" d="M1679.13,1028.79a37.51,37.51,0,0,1-23.74-9.85l23.74-23.75Z"/><path class="cls-14" d="M1717.83,989.74h-33.59L1708,966A37.49,37.49,0,0,1,1717.83,989.74Z"/><path class="cls-14" d="M1681.88,953.79a37.55,37.55,0,0,1,23.75,9.85l-23.75,23.74Z"/><path class="cls-14" d="M1682.46,1028.79v-33.6l23.74,23.75A37.49,37.49,0,0,1,1682.46,1028.79Z"/><path class="cls-14" d="M1708.56,1016.58l-23.74-23.74h33.59A37.49,37.49,0,0,1,1708.56,1016.58Z"/><path class="cls-15" d="M1717.83,989.74h-33.59L1708,966A37.49,37.49,0,0,1,1717.83,989.74Z"/><path class="cls-15" d="M1678.56,953.79v33.59l-23.75-23.74A37.57,37.57,0,0,1,1678.56,953.79Z"/><path class="cls-15" d="M1705.63,963.64l-23.75,23.74V953.79A37.55,37.55,0,0,1,1705.63,963.64Z"/><path class="cls-15" d="M1676.21,989.74h-33.6a37.49,37.49,0,0,1,9.85-23.74Z"/><path class="cls-11" d="M1653,1016.58a37.44,37.44,0,0,1-9.85-23.74h33.59Z"/><path class="cls-11" d="M1655.39,1018.94l23.74-23.75v33.6A37.51,37.51,0,0,1,1655.39,1018.94Z"/><path class="cls-11" d="M1706.2,1018.94a37.49,37.49,0,0,1-23.74,9.85v-33.6Z"/><path class="cls-11" d="M1708.56,1016.58l-23.74-23.74h33.59A37.49,37.49,0,0,1,1708.56,1016.58Z"/><path class="cls-13" d="M1653,1016.58a37.44,37.44,0,0,1-9.85-23.74h33.59Z"/><path class="cls-13" d="M1655.39,1018.94l23.74-23.75v33.6A37.51,37.51,0,0,1,1655.39,1018.94Z"/><path class="cls-13" d="M1706.2,1018.94a37.49,37.49,0,0,1-23.74,9.85v-33.6Z"/><path class="cls-13" d="M1708.56,1016.58l-23.74-23.74h33.59A37.49,37.49,0,0,1,1708.56,1016.58Z"/><path class="cls-15" d="M1676.78,992.84,1653,1016.58a37.44,37.44,0,0,1-9.85-23.74Z"/><path class="cls-15" d="M1706.2,1018.94a37.49,37.49,0,0,1-23.74,9.85v-33.6Z"/><path class="cls-15" d="M1679.13,995.19v33.6a37.51,37.51,0,0,1-23.74-9.85Z"/><path class="cls-15" d="M1718.41,992.84a37.49,37.49,0,0,1-9.85,23.74l-23.74-23.74Z"/><circle class="cls-11" cx="1825.27" cy="992.93" r="46.27"/><circle class="cls-12" cx="1825.27" cy="992.93" r="44.11"/><path class="cls-11" d="M1796.36,967,1821,991.69h-34.92A38.94,38.94,0,0,1,1796.36,967Z"/><path class="cls-11" d="M1798.8,964.57a38.94,38.94,0,0,1,24.68-10.24v34.91Z"/><path class="cls-11" d="M1851.62,964.57l-24.68,24.67V954.33A38.94,38.94,0,0,1,1851.62,964.57Z"/><path class="cls-11" d="M1854.07,967a39,39,0,0,1,10.24,24.68h-34.92Z"/><path class="cls-13" d="M1796.36,967,1821,991.69h-34.92A38.94,38.94,0,0,1,1796.36,967Z"/><path class="cls-13" d="M1798.8,964.57a38.94,38.94,0,0,1,24.68-10.24v34.91Z"/><path class="cls-13" d="M1851.62,964.57l-24.68,24.67V954.33A38.94,38.94,0,0,1,1851.62,964.57Z"/><path class="cls-13" d="M1854.07,967a39,39,0,0,1,10.24,24.68h-34.92Z"/><path class="cls-14" d="M1823.48,954.33v34.91l-24.68-24.67A38.94,38.94,0,0,1,1823.48,954.33Z"/><path class="cls-14" d="M1796.36,967,1821,991.69h-34.92A38.94,38.94,0,0,1,1796.36,967Z"/><path class="cls-14" d="M1786.72,994.91h34.91L1797,1019.59A38.92,38.92,0,0,1,1786.72,994.91Z"/><path class="cls-14" d="M1824.08,1032.28A38.94,38.94,0,0,1,1799.4,1022l24.68-24.68Z"/><path class="cls-14" d="M1864.31,991.69h-34.92L1854.07,967A39,39,0,0,1,1864.31,991.69Z"/><path class="cls-14" d="M1826.94,954.33a38.94,38.94,0,0,1,24.68,10.24l-24.68,24.67Z"/><path class="cls-14" d="M1827.54,1032.28V997.36l24.68,24.68A38.94,38.94,0,0,1,1827.54,1032.28Z"/><path class="cls-14" d="M1854.67,1019.59,1830,994.91h34.91A39,39,0,0,1,1854.67,1019.59Z"/><path class="cls-15" d="M1864.31,991.69h-34.92L1854.07,967A39,39,0,0,1,1864.31,991.69Z"/><path class="cls-15" d="M1823.48,954.33v34.91l-24.68-24.67A38.94,38.94,0,0,1,1823.48,954.33Z"/><path class="cls-15" d="M1851.62,964.57l-24.68,24.67V954.33A38.94,38.94,0,0,1,1851.62,964.57Z"/><path class="cls-15" d="M1821,991.69h-34.92A38.94,38.94,0,0,1,1796.36,967Z"/><path class="cls-11" d="M1797,1019.59a38.92,38.92,0,0,1-10.24-24.68h34.91Z"/><path class="cls-11" d="M1799.4,1022l24.68-24.68v34.92A38.94,38.94,0,0,1,1799.4,1022Z"/><path class="cls-11" d="M1852.22,1022a38.94,38.94,0,0,1-24.68,10.24V997.36Z"/><path class="cls-11" d="M1854.67,1019.59,1830,994.91h34.91A39,39,0,0,1,1854.67,1019.59Z"/><path class="cls-13" d="M1797,1019.59a38.92,38.92,0,0,1-10.24-24.68h34.91Z"/><path class="cls-13" d="M1799.4,1022l24.68-24.68v34.92A38.94,38.94,0,0,1,1799.4,1022Z"/><path class="cls-13" d="M1852.22,1022a38.94,38.94,0,0,1-24.68,10.24V997.36Z"/><path class="cls-13" d="M1854.67,1019.59,1830,994.91h34.91A39,39,0,0,1,1854.67,1019.59Z"/><path class="cls-15" d="M1821.63,994.91,1797,1019.59a38.92,38.92,0,0,1-10.24-24.68Z"/><path class="cls-15" d="M1852.22,1022a38.94,38.94,0,0,1-24.68,10.24V997.36Z"/><path class="cls-15" d="M1824.08,997.36v34.92A38.94,38.94,0,0,1,1799.4,1022Z"/><path class="cls-15" d="M1864.9,994.91a39,39,0,0,1-10.23,24.68L1830,994.91Z"/><rect class="cls-16" x="26.52" y="360.66" width="534.59" height="414.91"/><path class="cls-17" d="M57.39,561c0-41.48,12.93-94.41,28.88-94.41s28.88,52.93,28.88,94.41Z"/><polyline class="cls-17" points="86.27 467.65 86.27 388.26 115.15 388.26 57.39 388.26"/><path class="cls-17" d="M57.39,758.65c0-41.47,12.93-94.41,28.88-94.41s28.88,52.94,28.88,94.41Z"/><polyline class="cls-17" points="86.27 665.31 86.27 585.92 115.15 585.92 57.39 585.92"/><path class="cls-17" d="M188.28,557.43C188.28,516,201.2,463,217.15,463S246,516,246,557.43Z"/><polyline class="cls-17" points="217.15 464.09 217.15 384.7 246.03 384.7 188.28 384.7"/><path class="cls-17" d="M188.28,755.09c0-41.48,12.92-94.41,28.87-94.41S246,713.61,246,755.09Z"/><polyline class="cls-17" points="217.15 661.75 217.15 582.36 246.03 582.36 188.28 582.36"/><path class="cls-17" d="M328.37,557.43C328.37,516,341.3,463,357.25,463s28.88,52.93,28.88,94.41Z"/><polyline class="cls-17" points="357.25 462.87 357.25 383.48 386.13 383.48 328.37 383.48"/><path class="cls-17" d="M328.37,755.09c0-41.48,12.93-94.41,28.88-94.41s28.88,52.93,28.88,94.41Z"/><polyline class="cls-17" points="357.25 661.75 357.25 582.36 386.13 582.36 328.37 582.36"/><path class="cls-17" d="M453.73,557.43C453.73,516,466.65,463,482.6,463s28.88,52.93,28.88,94.41Z"/><polyline class="cls-17" points="482.6 464.09 482.6 384.7 511.48 384.7 453.73 384.7"/><path class="cls-17" d="M453.73,755.09c0-41.48,12.92-94.41,28.87-94.41s28.88,52.93,28.88,94.41Z"/><polyline class="cls-17" points="482.6 661.75 482.6 582.36 511.48 582.36 453.73 582.36"/><line class="cls-10" x1="-1.9" y1="26.66" x2="1920.1" y2="26.66"/><path class="cls-11" d="M300.77,281.65a34.83,34.83,0,0,1-60.53-34.48"/><path class="cls-13" d="M298.83,280.73a32.53,32.53,0,1,1-56.53-32.2"/><path class="cls-18" d="M299,280.81a32.69,32.69,0,1,1-56.81-32.36m.28.17a32.37,32.37,0,0,0,56.25,32"/><path class="cls-18" d="M299,280.81a32.69,32.69,0,1,1-56.81-32.36m.28.17a32.37,32.37,0,0,0,56.25,32"/><path class="cls-19" d="M298.83,280.73a32.53,32.53,0,1,1-56.53-32.2"/><path class="cls-20" d="M299,280.81a32.69,32.69,0,1,1-56.81-32.36m.28.17a32.37,32.37,0,0,0,56.25,32"/><path class="cls-15" d="M267.16,264.2,244.1,251.07a29.67,29.67,0,0,0-2.52,20.15Z"/><path class="cls-15" d="M270.14,268,257,291.1a29.65,29.65,0,0,0,20.14,2.52Z"/><path class="cls-15" d="M267.85,266.74l-25.57,7a29.55,29.55,0,0,0,12.44,16Z"/><path class="cls-15" d="M272.67,267.35l7,25.57a29.59,29.59,0,0,0,16-12.44Z"/><path class="cls-21" d="M301,282l-60.81-34.64Z"/><line class="cls-22" x1="240.49" y1="247.39" x2="301.02" y2="281.87"/><rect class="cls-11" x="270.07" y="229.64" width="0.8" height="69.66" transform="translate(-93.2 368.6) rotate(-60.33)"/><circle class="cls-23" cx="261.06" cy="270.37" r="4.6"/><ellipse class="cls-24" cx="261.3" cy="269.94" rx="3.94" ry="4.44" transform="translate(-102.59 363.39) rotate(-60.33)"/><circle class="cls-25" cx="260.38" cy="267.91" r="1.31"/><circle class="cls-25" cx="262.3" cy="270.51" r="0.66"/><line class="cls-26" x1="257.41" y1="271.13" x2="256.84" y2="272.13"/><line class="cls-26" x1="259.49" y1="273.45" x2="259.01" y2="274.31"/><line class="cls-26" x1="262.27" y1="273.9" x2="261.62" y2="275.04"/><circle class="cls-23" cx="271.75" cy="276.84" r="4.6"/><ellipse class="cls-24" cx="271.99" cy="276.41" rx="3.94" ry="4.44" transform="translate(-102.81 375.95) rotate(-60.33)"/><circle class="cls-25" cx="271.07" cy="274.37" r="1.31"/><circle class="cls-25" cx="272.99" cy="276.98" r="0.66"/><line class="cls-26" x1="268.1" y1="277.6" x2="267.53" y2="278.6"/><line class="cls-26" x1="270.18" y1="279.92" x2="269.69" y2="280.77"/><line class="cls-26" x1="272.95" y1="280.36" x2="272.3" y2="281.5"/><path class="cls-26" d="M265.75,285.71a5.59,5.59,0,0,1-9.71-5.53"/><path class="cls-26" d="M258.69,278.89a2,2,0,1,1-3.81-1"/><path class="cls-26" d="M268.64,285.61a2,2,0,1,1-2.92-2.65"/><ellipse class="cls-27" cx="252" cy="273.34" rx="0.82" ry="1.81" transform="translate(-110.24 357.02) rotate(-60.33)"/><ellipse class="cls-27" cx="272.67" cy="285.5" rx="0.82" ry="1.81" transform="translate(-110.36 381.13) rotate(-60.33)"/><path class="cls-28" d="M319.51,271.27a2.14,2.14,0,0,1-1-2.67,2.13,2.13,0,0,0-1.46-1.33,2.14,2.14,0,0,0-1.73-2.49,2.12,2.12,0,0,0-2.11-2.42,2.17,2.17,0,0,0-.13-.86,2.15,2.15,0,0,0-1.93-1.39,1.94,1.94,0,0,0-.13-.66,2.12,2.12,0,0,0-2.37-1.36,2.19,2.19,0,0,0-.13-.75A2.13,2.13,0,0,0,306,256a1.79,1.79,0,0,0-.11-.51,2.15,2.15,0,0,0-2.48-1.35,1.77,1.77,0,0,0-.08-.31,2.12,2.12,0,0,0-2.47-1.34c0-.11-.05-.21-.09-.32a2.14,2.14,0,0,0-2.65-1.29l0-.1a2.13,2.13,0,1,0-4,1.48,2,2,0,0,0,.37.63,2.14,2.14,0,0,0-1.11,2.67c0,.1.09.19.13.28a2.14,2.14,0,0,0-1.19,2.71,3.54,3.54,0,0,0,.16.34,2.14,2.14,0,0,0-1.28,3.65,2.13,2.13,0,0,0-1.18,2.7,2.17,2.17,0,0,0,.89,1.08,2.14,2.14,0,0,0-1.22,2.72,2.11,2.11,0,0,0,.56.83,2.13,2.13,0,0,0-.84,2.52,2.07,2.07,0,0,0,.68.93v.08a2.15,2.15,0,0,0-.39,2.13,2.19,2.19,0,0,0,.67.93,2.14,2.14,0,0,0,.75,3.1,2.1,2.1,0,0,0,0,1.52,2.14,2.14,0,0,0,1.13,1.21,2.13,2.13,0,0,0,1.62,3,2.09,2.09,0,0,0,0,1.46,2.14,2.14,0,0,0,1.85,1.39,2.18,2.18,0,0,0,0,1.38,2.12,2.12,0,0,1,2.38,2.37,2.15,2.15,0,0,0,2.38,1.36,2.1,2.1,0,0,0,.13.74,2.13,2.13,0,0,0,2.74,1.27l.13-.06.08.05a2.08,2.08,0,0,0,.13.64,2.13,2.13,0,0,0,2.74,1.26,1.6,1.6,0,0,0,.3-.13,2.13,2.13,0,0,0,3.9-.3,2.13,2.13,0,0,0,3.37-1.23l.18-.1a2.15,2.15,0,0,0,1.84.18,2.12,2.12,0,0,0,1.34-2.47,1.68,1.68,0,0,0,.32-.09,2.13,2.13,0,0,0,1.26-2.74,2.08,2.08,0,0,0-.24-.47,2.13,2.13,0,0,0,1.05-2.64c0-.1-.09-.19-.13-.28a2.14,2.14,0,0,0,1.19-2.71,2.11,2.11,0,0,0-.56-.83,2.13,2.13,0,0,0,.84-2.52,2,2,0,0,0-.46-.73,2.13,2.13,0,0,0,.62-2.36,2.18,2.18,0,0,0-1-1.17,2.13,2.13,0,0,0-1-3.3A2.12,2.12,0,0,0,319.51,271.27Z"/><path class="cls-29" d="M310.67,296.47l-11.76-37.64,15,36.4a1.19,1.19,0,0,1-.67,1.61l-1.06.39A1.2,1.2,0,0,1,310.67,296.47Z"/><circle class="cls-30" cx="298.81" cy="269.2" r="2.84"/><ellipse class="cls-24" cx="298.7" cy="268.91" rx="2.74" ry="2.44" transform="translate(-74.56 119.87) rotate(-20.23)"/><circle class="cls-25" cx="297.37" cy="268.54" r="0.81"/><circle class="cls-25" cx="299.37" cy="268.67" r="0.41"/><line class="cls-26" x1="297.71" y1="271.23" x2="297.96" y2="271.89"/><line class="cls-26" x1="299.64" y1="271.17" x2="299.85" y2="271.74"/><line class="cls-26" x1="300.95" y1="270.03" x2="301.24" y2="270.79"/><circle class="cls-30" cx="305.97" cy="266.49" r="2.84"/><ellipse class="cls-24" cx="305.87" cy="266.21" rx="2.74" ry="2.44" transform="translate(-73.18 122.18) rotate(-20.23)"/><circle class="cls-25" cx="304.54" cy="265.83" r="0.81"/><circle class="cls-25" cx="306.53" cy="265.96" r="0.41"/><line class="cls-26" x1="304.88" y1="268.52" x2="305.13" y2="269.19"/><line class="cls-26" x1="306.81" y1="268.46" x2="307.02" y2="269.03"/><line class="cls-26" x1="308.12" y1="267.32" x2="308.4" y2="268.09"/><path d="M300.7,274a3.73,3.73,0,0,0,1.1,1.56,1.84,1.84,0,0,1,.87-.65,1.91,1.91,0,0,1,2.46,1.13,2.17,2.17,0,0,1,.07.24,2,2,0,0,0,.26-.09,3.71,3.71,0,0,0,2.2-4.76Z"/><path class="cls-31" d="M302.67,274.89a1.84,1.84,0,0,0-.87.65,3.73,3.73,0,0,0,3.4.72,2.17,2.17,0,0,0-.07-.24A1.91,1.91,0,0,0,302.67,274.89Z"/><ellipse class="cls-27" cx="309.92" cy="269.61" rx="1.12" ry="0.51" transform="translate(-74.11 123.79) rotate(-20.23)"/><ellipse class="cls-27" cx="297.53" cy="274.17" rx="1.12" ry="0.51" transform="translate(-76.45 119.79) rotate(-20.23)"/><rect class="cls-32" x="231.92" y="194.15" width="45.18" height="45.18" rx="9.71" transform="translate(-31.09 43) rotate(-9.1)"/><path class="cls-33" d="M247.15,233.89a1.65,1.65,0,0,1-.36,2.73c-1.95.94-4.83,1.35-6-3.41C239.36,227.63,244.45,231.52,247.15,233.89Z"/><path class="cls-34" d="M247.54,231.77a1.65,1.65,0,0,1-.36,2.73c-2,.94-4.83,1.35-6-3.4C239.75,225.51,244.83,229.4,247.54,231.77Z"/><path class="cls-33" d="M262,200.33a1.66,1.66,0,0,1,1-2.55c2.13-.41,5-.07,5,4.84C268,208.38,264.05,203.32,262,200.33Z"/><path class="cls-34" d="M261.42,202.06a1.66,1.66,0,0,1,1.05-2.55c2.12-.41,5-.07,4.95,4.83C267.35,210.1,263.43,205,261.42,202.06Z"/><circle class="cls-23" cx="245.15" cy="211.39" r="3.95"/><ellipse class="cls-24" cx="245.08" cy="210.97" rx="3.81" ry="3.39" transform="translate(-30.3 41.44) rotate(-9.1)"/><circle class="cls-25" cx="243.37" cy="210.11" r="1.13"/><circle class="cls-25" cx="246.05" cy="210.82" r="0.56"/><line class="cls-26" x1="243.11" y1="213.86" x2="243.27" y2="214.84"/><line class="cls-26" x1="245.75" y1="214.3" x2="245.89" y2="215.13"/><line class="cls-26" x1="247.85" y1="213.1" x2="248.03" y2="214.22"/><path class="cls-35" d="M260.19,206.67a3.43,3.43,0,0,1,4,2.79l.44-.07a4,4,0,0,0-7.81,1.25l.47-.07A3.6,3.6,0,0,1,260.19,206.67Z"/><path d="M251.57,227.79l0-.28c.09,0,9.34-1.74,10.68-4.25a1.07,1.07,0,0,0,.06-1l.26-.11a1.37,1.37,0,0,1-.07,1.26C261.05,226,252,227.71,251.57,227.79Z"/><path d="M262.77,222.26a1.41,1.41,0,0,1-.41,0,1.83,1.83,0,0,1-1.72-1.94l.28,0a1.56,1.56,0,0,0,1.46,1.64,1.56,1.56,0,0,0,1.64-1.46l.28,0a1.75,1.75,0,0,1-.61,1.26A1.72,1.72,0,0,1,262.77,222.26Z"/><ellipse class="cls-27" cx="267.78" cy="214.75" rx="1.55" ry="0.71" transform="translate(-30.61 45.08) rotate(-9.1)"/><ellipse class="cls-27" cx="240.18" cy="219.17" rx="1.55" ry="0.71" transform="translate(-31.66 40.77) rotate(-9.1)"/><path class="cls-36" d="M318.56,185.61h1.75a2.83,2.83,0,0,1,2.83,2.83v17.8a.48.48,0,0,1-.48.48h-6.46a.48.48,0,0,1-.48-.48v-17.8a2.83,2.83,0,0,1,2.83-2.83Z" transform="translate(56.92 -71.43) rotate(13.99)"/><path class="cls-36" d="M316.82,248.72l-19.74-4.92a3.19,3.19,0,0,1-2.32-3.86l7.53-30.19c1-4.21,8.1-6.23,10.75-6.85a4,4,0,0,1,1.92,0l5.47,1.36a3.24,3.24,0,0,1,1.33.68c1.9,1.64,7.53,6.92,6.45,11.25l-7.53,30.19A3.17,3.17,0,0,1,316.82,248.72Z"/><path class="cls-22" d="M316.85,221.37a3.59,3.59,0,0,0-7-1.74l-9.46-2.36-2.6,10.44,25.89,6.45,2.6-10.44Z"/><path d="M305.36,224.58c-.07.14-.16.22-.25.23a.2.2,0,0,1-.1,0l-.1,0-.78.12a.18.18,0,0,0-.09.07.27.27,0,0,1-.09.06,1,1,0,0,1-.43-.19c-.21-.13-.33-.23-.36-.31a.36.36,0,0,1,0-.24.35.35,0,0,0,0-.12l.81-3.23a.15.15,0,0,0,0-.09s0-.05,0-.07.08-.09.2-.09a1.17,1.17,0,0,1,.42.18c.23.14.34.26.32.36l-.08.1a.35.35,0,0,0-.09.1l-.66,2.66.56-.09a.44.44,0,0,1,.18-.05s.15.1.31.29S305.39,224.54,305.36,224.58Z"/><path d="M308.7,222.25c0,.17-.08.27-.19.29l-.09,0a11,11,0,0,0-1.11,1.32,7.18,7.18,0,0,0-.75,1.11.45.45,0,0,0,0,.14.63.63,0,0,1,0,.16c-.08.21-.16.32-.25.31a1.24,1.24,0,0,1-.32-.15,2.09,2.09,0,0,1-.32-.23c-.09-.11-.13-.2-.11-.27a.33.33,0,0,1,.07-.13l.47-.69c-.13-.62-.21-1-.25-1.27a8.67,8.67,0,0,1-.14-1.12.31.31,0,0,0,0-.09.11.11,0,0,1,0-.09c0-.05.09-.11.24-.17.32-.14.52-.19.62-.15a.17.17,0,0,1,.11.13.49.49,0,0,1,0,.15,2.78,2.78,0,0,0,0,.3,4.78,4.78,0,0,0,.14,1.4l.48-.65a6.37,6.37,0,0,1,.6-.66l.12-.18a.28.28,0,0,1,.28,0,.83.83,0,0,1,.31.25C308.65,222.1,308.71,222.2,308.7,222.25Z"/><path d="M310.36,225.73a.84.84,0,0,1-.38.53,1,1,0,0,1-.71.07,1,1,0,0,1-.22-.09l-.22-.12-.22-.11a.44.44,0,0,1-.17-.16.8.8,0,0,1-.12-.42,2.45,2.45,0,0,0-.06-.42.68.68,0,0,1-.06-.16.22.22,0,0,1,.06-.13.25.25,0,0,1,.12-.07l.11,0a3.24,3.24,0,0,1,.4.14.75.75,0,0,1,.26.15,1.47,1.47,0,0,1,0,.36c0,.2,0,.32.05.35a.05.05,0,0,0,0,0c.06,0,.12,0,.19-.11a.84.84,0,0,0,.15-.33.59.59,0,0,0-.12-.62,3.39,3.39,0,0,1-.69-.8,1,1,0,0,1-.06-.81,1.54,1.54,0,0,1,.44-.66.94.94,0,0,1,.61-.31,1.89,1.89,0,0,1,.62.38l.25.18a.56.56,0,0,1,.19.22,1,1,0,0,1,0,.62,1.94,1.94,0,0,1-.06.22,1.86,1.86,0,0,0-.05.19.54.54,0,0,0,0,.11.37.37,0,0,1,0,.11c0,.14-.12.21-.24.2a.93.93,0,0,1-.34-.17.72.72,0,0,1-.31-.28s0-.05,0-.1.05-.16.1-.32.09-.29.11-.37,0-.21,0-.21a.32.32,0,0,0-.3.15,1.06,1.06,0,0,0-.21.44.74.74,0,0,0,.1.68l.48.5a1.2,1.2,0,0,1,.29.45A1.22,1.22,0,0,1,310.36,225.73Z"/><path d="M314.49,226.85q0,.09-.27.36c-.19.17-.34.25-.43.22a.29.29,0,0,1-.21-.22.41.41,0,0,0,0-.16l-.77-1.2-.22.89a.33.33,0,0,0,0,.14.2.2,0,0,1,0,.13c0,.1-.1.14-.22.12a1.78,1.78,0,0,1-.42-.16c-.19-.1-.28-.17-.27-.22l0-.06a.66.66,0,0,0,0-.11l.83-3.35a.06.06,0,0,0,0-.06v0c0-.08.1-.12.23-.1a.82.82,0,0,1,.25.11,1.07,1.07,0,0,0,.28.12,1,1,0,0,0,.36-.05,1.07,1.07,0,0,1,.47,0l.15.05a.46.46,0,0,1,.21.18l.17.25.21.33a.65.65,0,0,1,.05.36c-.07.37-.51.77-1.31,1.19.11.16.33.53.67,1.11l.11.09A.3.3,0,0,1,314.49,226.85Zm-.39-2.95a1.72,1.72,0,0,0-.91.27l-.19.74a1.7,1.7,0,0,0,.67-.36,1.36,1.36,0,0,0,.49-.53Q314.18,223.91,314.1,223.9Z"/><path d="M316.16,228a.74.74,0,0,1-.22-.08l-.23-.14-.42-.25a1.17,1.17,0,0,1-.41-.8,3.07,3.07,0,0,1,.09-1.1,4.68,4.68,0,0,1,.47-1.14c.3-.56.58-.81.83-.75l.09,0,.09,0a2.11,2.11,0,0,1,.48,0l.09,0a1.19,1.19,0,0,1,.73.94,3.12,3.12,0,0,1-.05,1.48,3,3,0,0,1-.6,1.25A1,1,0,0,1,316.16,228Zm.79-3.54c-.07,0-.16,0-.28.23s-.22.28-.29.26l-.06,0-.07-.05a2.57,2.57,0,0,0-.42,1,3.53,3.53,0,0,0-.11.92c0,.3.09.48.23.55s.35-.07.55-.43a4.48,4.48,0,0,0,.44-1.18,4,4,0,0,0,.13-.81C317.08,224.68,317,224.53,317,224.48Z"/><path d="M321.84,229.22c0,.14-.11.2-.17.2a1.14,1.14,0,0,1-.42-.17c-.22-.12-.33-.22-.35-.29v-.08s0,0,0-.09l0-.1.54-2.18a12,12,0,0,0-1.08,1.84l0,0a.57.57,0,0,0,0,.16.88.88,0,0,1,0,.14l-.06.19a.15.15,0,0,1-.13.09l-.17,0a1.38,1.38,0,0,1-.81-.43.14.14,0,0,1,0-.13.38.38,0,0,0,0-.14c0-.39-.05-.74-.08-1-.06-.72-.11-1.15-.14-1.28l-.48,1.91a.53.53,0,0,0,0,.18,1.74,1.74,0,0,1,0,.18,1.06,1.06,0,0,1-.05.23c0,.11-.07.17-.12.19a.15.15,0,0,1-.11,0,1.49,1.49,0,0,1-.41-.17c-.17-.08-.26-.15-.28-.2a.14.14,0,0,1,0-.09.16.16,0,0,1,0-.09l0-.1.85-3.41a.21.21,0,0,1,.08-.12.28.28,0,0,1,.13-.07,1.84,1.84,0,0,1,.6.27c.36.2.54.33.55.41a.35.35,0,0,1,0,.12.31.31,0,0,0,0,.12.19.19,0,0,0,0,.08l.21,1.9c.17-.26.47-.8.93-1.61.23-.42.38-.62.46-.63h.08l.26.12.28.13.43.15c.14.06.21.14.21.22a.17.17,0,0,1,0,.07.73.73,0,0,1-.06.14.28.28,0,0,0,0,.12l-.74,2.94a.41.41,0,0,0,0,.16C321.85,229.14,321.86,229.2,321.84,229.22Z"/><rect class="cls-22" x="315.31" y="196.26" width="6.96" height="5.27" transform="translate(57.56 -71.19) rotate(13.99)"/><circle class="cls-37" cx="308.33" cy="212.39" r="3.14"/><ellipse class="cls-24" cx="308.42" cy="212.06" rx="2.69" ry="3.03" transform="translate(28.07 460.04) rotate(-76.01)"/><circle class="cls-25" cx="307.44" cy="210.89" r="0.9"/><circle class="cls-25" cx="309.18" cy="212.25" r="0.45"/><line class="cls-26" x1="306.08" y1="213.56" x2="305.89" y2="214.32"/><line class="cls-26" x1="307.87" y1="214.7" x2="307.71" y2="215.35"/><line class="cls-26" x1="309.78" y1="214.48" x2="309.56" y2="215.35"/><circle class="cls-37" cx="321.57" cy="215.91" r="3.14"/><ellipse class="cls-24" cx="321.65" cy="215.59" rx="2.69" ry="3.03" transform="translate(34.68 475.56) rotate(-76.01)"/><circle class="cls-25" cx="320.67" cy="214.42" r="0.9"/><circle class="cls-25" cx="322.41" cy="215.78" r="0.45"/><line class="cls-26" x1="319.31" y1="217.09" x2="319.12" y2="217.85"/><line class="cls-26" x1="321.11" y1="218.23" x2="320.94" y2="218.88"/><line class="cls-26" x1="323.01" y1="218.01" x2="322.79" y2="218.88"/><path class="cls-35" d="M315.53,237.07l-12-3a8.74,8.74,0,0,0,1.7,7.31,2.92,2.92,0,0,1,5.35,1.33A8.78,8.78,0,0,0,315.53,237.07Z"/><path class="cls-31" d="M308.4,240.15a2.91,2.91,0,0,0-3.15,1.24,4.76,4.76,0,0,0,2.44,1.59,4.72,4.72,0,0,0,2.91-.26A2.92,2.92,0,0,0,308.4,240.15Z"/><ellipse class="cls-27" cx="324.53" cy="221.38" rx="0.56" ry="1.23" transform="translate(31.24 482.74) rotate(-76.01)"/><ellipse class="cls-27" cx="302.96" cy="216" rx="0.56" ry="1.23" transform="translate(20.11 457.74) rotate(-76.01)"/><path class="cls-38" d="M347.23,179.94l-8.67,102.79c0,13.77-9.49,24.93-21.17,24.93H251.3c-11.68,0-21.17-11.16-21.17-24.93l-7.22-102.79,61.37,67.72.4.43.39-.43V179.94Z"/><polygon class="cls-38" points="285.07 179.94 285.07 247.66 284.68 248.09 284.28 247.66 222.91 179.94 285.07 179.94"/><polyline class="cls-38" points="331.8 300.1 285.07 248.53 284.68 248.09"/><line class="cls-38" x1="284.68" y1="248.09" x2="236.94" y2="300.1"/><line class="cls-38" x1="347.23" y1="179.94" x2="285.07" y2="247.66"/><line class="cls-38" x1="284.28" y1="247.66" x2="227.87" y2="247.66"/><line class="cls-38" x1="341.38" y1="247.66" x2="285.07" y2="247.66"/><rect class="cls-10" x="11.6" y="333.16" width="567" height="16"/><rect class="cls-10" x="11.6" y="27.16" width="567" height="765"/><path class="cls-38" d="M827.1,797.5l-5.55,65.84c0,8.83-6.07,16-13.56,16H765.66c-7.49,0-13.56-7.14-13.56-16l-4.63-65.84,39.32,43.38.25.27.25-.27V797.5Z"/><polygon class="cls-38" points="787.29 797.5 787.29 840.88 787.04 841.15 786.79 840.88 747.47 797.5 787.29 797.5"/><polyline class="cls-38" points="817.22 874.47 787.29 841.44 787.04 841.15"/><line class="cls-38" x1="787.04" y1="841.15" x2="756.46" y2="874.47"/><line class="cls-38" x1="827.1" y1="797.5" x2="787.29" y2="840.88"/><line class="cls-38" x1="786.79" y1="840.88" x2="750.65" y2="840.88"/><line class="cls-38" x1="823.36" y1="840.88" x2="787.29" y2="840.88"/><path class="cls-38" d="M990.1,797.5l-5.55,65.84c0,8.83-6.07,16-13.56,16H928.66c-7.49,0-13.56-7.14-13.56-16l-4.63-65.84,39.32,43.38.25.27.25-.27V797.5Z"/><polygon class="cls-38" points="950.29 797.5 950.29 840.88 950.04 841.15 949.79 840.88 910.47 797.5 950.29 797.5"/><polyline class="cls-38" points="980.22 874.47 950.29 841.44 950.04 841.15"/><line class="cls-38" x1="950.04" y1="841.15" x2="919.46" y2="874.47"/><line class="cls-38" x1="990.1" y1="797.5" x2="950.29" y2="840.88"/><line class="cls-38" x1="949.79" y1="840.88" x2="913.65" y2="840.88"/><line class="cls-38" x1="986.36" y1="840.88" x2="950.29" y2="840.88"/><path class="cls-38" d="M1168.1,797.5l-5.55,65.84c0,8.83-6.07,16-13.56,16h-42.33c-7.49,0-13.56-7.14-13.56-16l-4.63-65.84,39.32,43.38.25.27.25-.27V797.5Z"/><polygon class="cls-38" points="1128.29 797.5 1128.29 840.88 1128.04 841.15 1127.79 840.88 1088.47 797.5 1128.29 797.5"/><polyline class="cls-38" points="1158.22 874.47 1128.29 841.44 1128.04 841.15"/><line class="cls-38" x1="1128.04" y1="841.15" x2="1097.46" y2="874.47"/><line class="cls-38" x1="1168.1" y1="797.5" x2="1128.29" y2="840.88"/><line class="cls-38" x1="1127.79" y1="840.88" x2="1091.65" y2="840.88"/><line class="cls-38" x1="1164.36" y1="840.88" x2="1128.29" y2="840.88"/><polygon class="cls-39" points="1952.65 500.66 1187.65 495.66 1472.72 5.66 1643.25 5.66 1952.65 500.66"/><path class="cls-40" d="M1524.46,44.34c0,17.36,14.66,31.4,32.65,31.15,17.26-.24,31.37-13.83,31.7-30.55a30.81,30.81,0,0,0-13.65-26.08A13.91,13.91,0,0,1,1569,7.4V-3.81h-24.7V7.54a13.73,13.73,0,0,1-6.15,11.31A30.84,30.84,0,0,0,1524.46,44.34Z"/><path class="cls-41" d="M1556.64,15.69c5.74,0,10.4-5.08,10.4-11.35V-3.81h-20.8V4.34C1546.24,10.61,1550.9,15.69,1556.64,15.69Z"/><polygon class="cls-42" points="1549.95 -0.95 1541.29 52.51 1571.31 52.51 1562.41 -0.95 1549.95 -0.95"/><polygon class="cls-43" points="2169.66 500.66 1404.65 495.66 1689.72 5.66 1860.25 5.66 2169.66 500.66"/><path class="cls-40" d="M1741.46,44.34c0,17.36,14.66,31.4,32.65,31.15,17.26-.24,31.37-13.83,31.7-30.55a30.81,30.81,0,0,0-13.65-26.08A13.91,13.91,0,0,1,1786,7.4V-3.81h-24.7V7.54a13.73,13.73,0,0,1-6.15,11.31A30.84,30.84,0,0,0,1741.46,44.34Z"/><path class="cls-41" d="M1773.64,15.69c5.74,0,10.4-5.08,10.4-11.35V-3.81h-20.8V4.34C1763.24,10.61,1767.9,15.69,1773.64,15.69Z"/><polygon class="cls-42" points="1766.95 -0.95 1758.29 52.51 1788.31 52.51 1779.41 -0.95 1766.95 -0.95"/><path class="cls-28" d="M267.94,96.51a4.6,4.6,0,0,1-1.25,2.08,4.55,4.55,0,0,1-1,6.74,4.54,4.54,0,0,1-2.74,6.38,4.53,4.53,0,0,1,.69,3.85,4.58,4.58,0,0,1-3.05,3.15,4.51,4.51,0,0,1,.37,3.32,4.57,4.57,0,0,1-4,3.33,4.38,4.38,0,0,1-.12,1.83,4.52,4.52,0,0,1-4.59,3.34,4.45,4.45,0,0,1-.07,2.14,4.53,4.53,0,0,1-5.43,3.21,5.13,5.13,0,0,1-.13.66,4.54,4.54,0,0,1-5.1,3.28,4.73,4.73,0,0,1-.16,1.12,4.56,4.56,0,0,1-5.61,3.18,5.07,5.07,0,0,1-.65-.24,4.43,4.43,0,0,1-1.61,2,4.5,4.5,0,0,1-3.79.64,4.26,4.26,0,0,1-1.38-.64,4.61,4.61,0,0,1-1.61-2l-.35,0h-.07a4.54,4.54,0,0,1-4.18,1l-.11,0a4.51,4.51,0,0,1-2.77-2.28,3.8,3.8,0,0,1-.33-.77,4.54,4.54,0,0,1-7.14-4.33,5.25,5.25,0,0,1-.69-.13,3.79,3.79,0,0,1-1-.39,4.5,4.5,0,0,1-2.05-2.32,1.84,1.84,0,0,1-.09-.25l-.09-.27a4.54,4.54,0,0,1,0-2.37,4.24,4.24,0,0,1,.57-1.28l-.08-.18-.3-.06a4.21,4.21,0,0,1-1.34-.62,4.56,4.56,0,0,1-1.84-5,4.25,4.25,0,0,1,.7-1.45,4.55,4.55,0,0,1-2.44-5.32,4.4,4.4,0,0,1,1-1.87,4.51,4.51,0,0,1-2.39-3.82,3.47,3.47,0,0,1,0-.72,5.43,5.43,0,0,1,.13-.68,4.57,4.57,0,0,1,1.66-2.44,4.54,4.54,0,0,1-1.36-1.9,4.49,4.49,0,0,1-.13-2.81,4.2,4.2,0,0,1,.7-1.46A4.46,4.46,0,0,1,203.9,101a4.56,4.56,0,0,1-1.23-4.49,4.49,4.49,0,0,1,2.18-2.78,4.54,4.54,0,0,1,1.47-6.12,4.59,4.59,0,0,1-.32-3.23,4.5,4.5,0,0,1,1.39-2.22,4.66,4.66,0,0,1,1.49-.88,4.4,4.4,0,0,1-.16-1.46,2.59,2.59,0,0,1,.07-.55h0a.55.55,0,0,1,0-.17.61.61,0,0,1,0-.13l0-.1a5.71,5.71,0,0,1,.21-.58,4.51,4.51,0,0,1,3.11-2.64l.09-.14a4.63,4.63,0,0,1,0-2.45,4.53,4.53,0,0,1,4.59-3.34,4.71,4.71,0,0,1,.06-2.14,4.58,4.58,0,0,1,5.51-3.21,4.55,4.55,0,0,1,5.21-6.21A4.53,4.53,0,0,1,233.33,53a4.43,4.43,0,0,1,1.07.46,5.72,5.72,0,0,1,.14-.81A4.56,4.56,0,0,1,240,49.44a4.66,4.66,0,0,1,.12-.65,4.56,4.56,0,0,1,5.23-3.27,4.56,4.56,0,1,1,8.94.87l-.07.21A4.46,4.46,0,0,1,257,52.79a4.57,4.57,0,0,1,2.63,5.41,5.07,5.07,0,0,1-.24.65A4.55,4.55,0,0,1,262,64.26a4.26,4.26,0,0,1-.44,1,4.54,4.54,0,0,1,2,6.89A4.56,4.56,0,0,1,266,77.51a4.23,4.23,0,0,1-.6,1.31A4.54,4.54,0,0,1,267,83.64a4.48,4.48,0,0,1-.84,1.64,4.56,4.56,0,0,1,1.74,4.91,4.61,4.61,0,0,1-1.08,1.92A4.58,4.58,0,0,1,267.94,96.51Z"/><path class="cls-29" d="M219.27,141.34l26.39-80-19.15,81.92a2.55,2.55,0,0,1-3.17,2l-2.32-.64A2.54,2.54,0,0,1,219.27,141.34Z"/><circle class="cls-30" cx="232.59" cy="79.22" r="6.08"/><ellipse class="cls-24" cx="232.76" cy="78.59" rx="5.21" ry="5.86" transform="translate(95.23 282.16) rotate(-74.61)"/><circle class="cls-25" cx="230.92" cy="76.28" r="1.74"/><circle class="cls-25" cx="234.22" cy="78.99" r="0.87"/><line class="cls-26" x1="228.17" y1="81.38" x2="227.76" y2="82.84"/><line class="cls-26" x1="231.59" y1="83.67" x2="231.24" y2="84.93"/><line class="cls-26" x1="235.28" y1="83.34" x2="234.82" y2="85.01"/><circle class="cls-30" cx="248.4" cy="83.43" r="6.08"/><ellipse class="cls-24" cx="248.57" cy="82.8" rx="5.21" ry="5.86" transform="translate(102.79 300.5) rotate(-74.61)"/><circle class="cls-25" cx="246.73" cy="80.5" r="1.74"/><circle class="cls-25" cx="250.04" cy="83.21" r="0.87"/><line class="cls-26" x1="243.98" y1="85.59" x2="243.58" y2="87.05"/><line class="cls-26" x1="247.4" y1="87.88" x2="247.05" y2="89.14"/><line class="cls-26" x1="251.09" y1="87.55" x2="250.63" y2="89.22"/><path d="M229.93,89.87a8,8,0,0,0,0,4.08,4.09,4.09,0,0,1,5.18,5,2.84,2.84,0,0,1-.17.49c.18.06.37.13.56.18a7.92,7.92,0,0,0,9.73-5.54Z"/><path class="cls-31" d="M232.22,93.9a4.06,4.06,0,0,0-2.32,0,7.94,7.94,0,0,0,5,5.48,2.84,2.84,0,0,0,.17-.49A4.1,4.1,0,0,0,232.22,93.9Z"/><ellipse class="cls-27" cx="251.37" cy="93.75" rx="1.08" ry="2.39" transform="translate(94.29 311.24) rotate(-74.61)"/><ellipse class="cls-27" cx="224.17" cy="86.26" rx="1.08" ry="2.39" transform="translate(81.53 279.51) rotate(-74.61)"/><path class="cls-11" d="M226.1,71.41A55.42,55.42,0,1,1,124.63,116Z"/><path class="cls-13" d="M223.1,73a51.76,51.76,0,0,1-94.77,41.64"/><path class="cls-18" d="M223.34,72.91a52,52,0,1,1-95.25,41.85m.48-.21a51.5,51.5,0,1,0,94.29-41.43"/><path class="cls-18" d="M223.34,72.91a52,52,0,1,1-95.25,41.85m.48-.21a51.5,51.5,0,1,0,94.29-41.43"/><path class="cls-19" d="M223.1,73a51.76,51.76,0,0,1-94.77,41.64"/><path class="cls-20" d="M223.34,72.91a52,52,0,1,1-95.25,41.85m.48-.21a51.5,51.5,0,1,0,94.29-41.43"/><path class="cls-15" d="M171.93,97.78l-38.65,17a47.18,47.18,0,0,0,23.34,22.34Z"/><path class="cls-15" d="M179.66,97.62l17,38.65A47.22,47.22,0,0,0,219,112.93Z"/><path class="cls-15" d="M175.83,99.3l-15.31,39.32a47.18,47.18,0,0,0,32.29-.67Z"/><path class="cls-15" d="M181.18,93.72,220.49,109a47.12,47.12,0,0,0-.66-32.29Z"/><path class="cls-21" d="M226.69,71.44,124.74,116.23Z"/><line class="cls-44" x1="125.16" y1="115.89" x2="226.63" y2="71.3"/><rect class="cls-11" x="120" y="93.17" width="110.83" height="1.27" transform="translate(-22.92 78.49) rotate(-23.72)"/><circle class="cls-23" cx="174.02" cy="111.43" r="7.32"/><ellipse class="cls-24" cx="173.7" cy="110.71" rx="7.06" ry="6.27" transform="translate(-29.86 79.23) rotate(-23.72)"/><circle class="cls-25" cx="170.23" cy="109.95" r="2.09"/><circle class="cls-25" cx="175.38" cy="109.97" r="1.05"/><line class="cls-26" x1="171.53" y1="116.8" x2="172.27" y2="118.48"/><line class="cls-26" x1="176.47" y1="116.35" x2="177.1" y2="117.78"/><line class="cls-26" x1="179.67" y1="113.23" x2="180.51" y2="115.14"/><circle class="cls-23" cx="192.42" cy="103.91" r="7.32"/><ellipse class="cls-24" cx="192.1" cy="103.19" rx="7.06" ry="6.27" transform="translate(-25.28 86) rotate(-23.72)"/><circle class="cls-25" cx="188.63" cy="102.44" r="2.09"/><circle class="cls-25" cx="193.78" cy="102.46" r="1.05"/><line class="cls-26" x1="189.93" y1="109.29" x2="190.66" y2="110.96"/><line class="cls-26" x1="194.87" y1="108.83" x2="195.5" y2="110.27"/><line class="cls-26" x1="198.06" y1="105.71" x2="198.91" y2="107.63"/><path class="cls-26" d="M198.06,120a8.89,8.89,0,1,1-16.28,7.15"/><path class="cls-26" d="M182.64,122.53a3.14,3.14,0,1,1-4.92,3.89"/><path class="cls-26" d="M200.68,116.2a3.14,3.14,0,1,1-6.16,1.22"/><ellipse class="cls-27" cx="169.21" cy="125.82" rx="2.88" ry="1.31" transform="translate(-36.32 78.7) rotate(-23.72)"/><ellipse class="cls-27" cx="204.36" cy="110.94" rx="2.88" ry="1.31" transform="translate(-27.37 91.58) rotate(-23.72)"/><circle class="cls-45" cx="1869.6" cy="62.16" r="38.5"/><circle class="cls-46" cx="1869.6" cy="62.16" r="34.5"/><rect class="cls-47" x="1867.1" y="32.66" width="6" height="58" rx="2.09"/><rect class="cls-47" x="1867.1" y="32.66" width="6" height="58" rx="2.09" transform="translate(504.14 1340.42) rotate(-45)"/><rect class="cls-47" x="1841.1" y="58.66" width="58" height="6" rx="2.09"/><rect class="cls-47" x="1841.1" y="58.66" width="58" height="6" rx="2.09" transform="translate(504.14 1340.42) rotate(-45)"/><circle class="cls-47" cx="1870.1" cy="61.66" r="17"/><circle class="cls-46" cx="1870.1" cy="61.66" r="6"/><circle class="cls-46" cx="1870.1" cy="61.66" r="9"/></g></g></svg>
