<svg id="Layer_1" data-name="Layer 1" xmlns="http://www.w3.org/2000/svg" width="500" height="110" viewBox="0 0 500 110"><defs><style>.cls-1{fill:#06ed68;}.cls-2{fill:#00df06;}.cls-3{fill:#00f106;}.cls-4{fill:#8611ab;}.cls-18,.cls-4,.cls-5,.cls-6,.cls-7{stroke:#000;}.cls-11,.cls-12,.cls-13,.cls-14,.cls-15,.cls-16,.cls-18,.cls-4,.cls-5,.cls-6,.cls-7{stroke-miterlimit:10;}.cls-11,.cls-6{fill:#fff;}.cls-13,.cls-14,.cls-17,.cls-7{fill:none;}.cls-8{fill:#ff002b;}.cls-9{fill:#f566d7;}.cls-10,.cls-16{fill:#00df64;}.cls-11,.cls-12,.cls-13,.cls-14,.cls-15,.cls-16{stroke:#fff;}.cls-14{opacity:0;}.cls-15{fill:#bbff4d;}.cls-18{fill:#f540d7;}</style></defs><title>tid_ui</title><path d="M488,46.78H442.5a21,21,0,0,0-21-21H19.11A14.62,14.62,0,0,0,4.5,40.4V81.17A14.61,14.61,0,0,0,19.11,95.78H421.5a21,21,0,0,0,21-21H488a7.52,7.52,0,0,0,7.52-7.52v-13A7.52,7.52,0,0,0,488,46.78Z"/><path class="cls-1" d="M19.11,25.78A14.62,14.62,0,0,0,4.5,40.4V81.17A14.61,14.61,0,0,0,19.11,95.78H186.5v-70Z"/><path class="cls-2" d="M233.34,56.63a4.5,4.5,0,0,1-1.25,2.08,4.56,4.56,0,0,1-1,6.75,4.53,4.53,0,0,1-2.74,6.37,4.56,4.56,0,0,1-2.36,7,4.55,4.55,0,0,1-3.64,6.65,4.43,4.43,0,0,1-.12,1.84,4.58,4.58,0,0,1-4.59,3.34A4.55,4.55,0,0,1,212.1,96c0,.22-.07.44-.13.65a4.55,4.55,0,0,1-5.11,3.29,4.18,4.18,0,0,1-.15,1.11,4.56,4.56,0,0,1-5.61,3.19,5.07,5.07,0,0,1-.65-.24,4.47,4.47,0,0,1-1.61,2,4.55,4.55,0,0,1-3.8.65,4.33,4.33,0,0,1-1.37-.65,4.55,4.55,0,0,1-1.61-2l-.35,0h-.07a4.56,4.56,0,0,1-4.19,1l-.11,0a4.44,4.44,0,0,1-2.76-2.27,4.06,4.06,0,0,1-.33-.77,4.55,4.55,0,0,1-7.15-4.34,3.87,3.87,0,0,1-.68-.12,4.2,4.2,0,0,1-1-.4,4.48,4.48,0,0,1-2-2.31,1.86,1.86,0,0,1-.1-.25c0-.09-.05-.18-.08-.27a4.49,4.49,0,0,1,.59-3.65,1,1,0,0,0-.09-.18l-.29-.07a4.41,4.41,0,0,1-2.29-1.48,4.52,4.52,0,0,1-.9-4.12,4.59,4.59,0,0,1,.7-1.46,4.56,4.56,0,0,1-1.4-7.19,4.52,4.52,0,0,1-2.39-3.81,3.47,3.47,0,0,1,0-.72,5.1,5.1,0,0,1,.13-.68A4.53,4.53,0,0,1,169,68.43a4.57,4.57,0,0,1-1.37-1.91,4.62,4.62,0,0,1-.13-2.81,4.44,4.44,0,0,1,.7-1.45,4.63,4.63,0,0,1,1.12-1.09,4.56,4.56,0,0,1,1-7.27,4.6,4.6,0,0,1-.46-3.5,4.53,4.53,0,0,1,1.94-2.62,4.51,4.51,0,0,1-.32-3.24,4.56,4.56,0,0,1,2.88-3.09,4.21,4.21,0,0,1-.17-1.46,3.73,3.73,0,0,1,.07-.56h0l0-.18s0-.08,0-.13l0-.09a3.6,3.6,0,0,1,.2-.58,4.54,4.54,0,0,1,3.12-2.64l.09-.14a4.66,4.66,0,0,1,0-2.46,4.57,4.57,0,0,1,4.6-3.34,4.66,4.66,0,0,1,.06-2.13,4.57,4.57,0,0,1,5.51-3.21,4.46,4.46,0,0,1-.2-3,4.55,4.55,0,0,1,5.4-3.23,4.56,4.56,0,0,1,5.7-5.2,4.87,4.87,0,0,1,1.07.46,4.63,4.63,0,0,1,.14-.8,4.55,4.55,0,0,1,5.44-3.21,5.13,5.13,0,0,1,.13-.66,4.55,4.55,0,0,1,5.23-3.26,4.36,4.36,0,0,1,.15-1.56,4.55,4.55,0,1,1,8.78,2.42l-.07.21a4.56,4.56,0,0,1,3,5.55,5.07,5.07,0,0,1-.24.65,4.54,4.54,0,0,1,2.62,5.4,3.71,3.71,0,0,1-.24.66,4.56,4.56,0,0,1,2.63,5.4,4.17,4.17,0,0,1-.44,1,4.56,4.56,0,0,1,2.71,5.43,4.51,4.51,0,0,1-.71,1.46,4.56,4.56,0,0,1,2.44,5.33,4.42,4.42,0,0,1-.6,1.3,4.56,4.56,0,0,1,.78,6.47,4.53,4.53,0,0,1,1.73,4.9,4.39,4.39,0,0,1-1.08,1.92A4.57,4.57,0,0,1,233.34,56.63Z"/><path class="cls-3" d="M184.67,101.46l26.39-80-19.15,81.92a2.55,2.55,0,0,1-3.18,2l-2.31-.64A2.55,2.55,0,0,1,184.67,101.46Z"/><circle class="cls-4" cx="197.98" cy="39.35" r="6.08"/><ellipse class="cls-5" cx="198.16" cy="38.72" rx="5.21" ry="5.86" transform="translate(108.25 219.5) rotate(-74.61)"/><circle class="cls-6" cx="196.32" cy="36.41" r="1.74"/><circle class="cls-6" cx="199.62" cy="39.12" r="0.87"/><line class="cls-7" x1="193.56" y1="41.5" x2="193.16" y2="42.97"/><line class="cls-7" x1="196.98" y1="43.8" x2="196.64" y2="45.05"/><line class="cls-7" x1="200.68" y1="43.46" x2="200.22" y2="45.14"/><circle class="cls-4" cx="213.8" cy="43.56" r="6.08"/><ellipse class="cls-5" cx="213.97" cy="42.93" rx="5.21" ry="5.86" transform="translate(115.81 237.84) rotate(-74.61)"/><circle class="cls-6" cx="212.13" cy="40.62" r="1.74"/><circle class="cls-6" cx="215.43" cy="43.33" r="0.87"/><line class="cls-7" x1="209.38" y1="45.72" x2="208.97" y2="47.18"/><line class="cls-7" x1="212.8" y1="48.01" x2="212.45" y2="49.26"/><line class="cls-7" x1="216.49" y1="47.67" x2="216.03" y2="49.35"/><path d="M195.33,50a7.81,7.81,0,0,0,0,4.07,4.1,4.1,0,0,1,5.18,5c0,.17-.11.33-.17.49l.55.19a7.92,7.92,0,0,0,9.74-5.54Z"/><path class="cls-8" d="M197.62,54a4.06,4.06,0,0,0-2.32,0,7.89,7.89,0,0,0,5,5.48c.06-.16.12-.32.17-.49A4.09,4.09,0,0,0,197.62,54Z"/><ellipse class="cls-9" cx="216.77" cy="53.87" rx="1.08" ry="2.39" transform="translate(107.31 248.58) rotate(-74.61)"/><ellipse class="cls-9" cx="189.57" cy="46.39" rx="1.08" ry="2.39" transform="translate(94.55 216.86) rotate(-74.61)"/><path class="cls-10" d="M191.5,31.53A55.42,55.42,0,0,1,90,76.12Z"/><path class="cls-11" d="M188.49,33.14A51.75,51.75,0,1,1,93.73,74.78"/><path class="cls-12" d="M188.73,33A52,52,0,1,1,93.49,74.89m.47-.21a51.5,51.5,0,0,0,94.3-41.43"/><path class="cls-12" d="M188.73,33A52,52,0,1,1,93.49,74.89m.47-.21a51.5,51.5,0,0,0,94.3-41.43"/><path class="cls-13" d="M188.49,33.14A51.75,51.75,0,1,1,93.73,74.78"/><path class="cls-14" d="M188.73,33A52,52,0,1,1,93.49,74.89m.47-.21a51.5,51.5,0,0,0,94.3-41.43"/><path class="cls-15" d="M137.33,57.91l-38.65,17A47.14,47.14,0,0,0,122,97.23Z"/><path class="cls-15" d="M145.06,57.74l17,38.65a47.09,47.09,0,0,0,22.33-23.33Z"/><path class="cls-15" d="M141.23,59.43,125.91,98.74a47.09,47.09,0,0,0,32.3-.67Z"/><path class="cls-15" d="M146.57,53.85l39.32,15.31a47.09,47.09,0,0,0-.67-32.3Z"/><path class="cls-16" d="M192.08,31.56,90.14,76.36Z"/><line class="cls-17" x1="90.55" y1="76.01" x2="192.02" y2="31.43"/><rect class="cls-10" x="85.39" y="53.3" width="110.83" height="1.27" transform="translate(-9.8 61.2) rotate(-23.72)"/><circle class="cls-18" cx="139.42" cy="71.55" r="7.32"/><ellipse class="cls-5" cx="139.1" cy="70.83" rx="7.06" ry="6.27" transform="translate(-16.74 61.94) rotate(-23.72)"/><circle class="cls-6" cx="135.63" cy="70.08" r="2.09"/><circle class="cls-6" cx="140.78" cy="70.1" r="1.05"/><line class="cls-7" x1="136.93" y1="76.93" x2="137.66" y2="78.6"/><line class="cls-7" x1="141.86" y1="76.47" x2="142.5" y2="77.91"/><line class="cls-7" x1="145.06" y1="73.35" x2="145.9" y2="75.27"/><circle class="cls-18" cx="157.82" cy="64.04" r="7.32"/><ellipse class="cls-5" cx="157.5" cy="63.32" rx="7.06" ry="6.27" transform="translate(-12.17 68.71) rotate(-23.72)"/><circle class="cls-6" cx="154.03" cy="62.56" r="2.09"/><circle class="cls-6" cx="159.17" cy="62.58" r="1.05"/><line class="cls-7" x1="155.32" y1="69.42" x2="156.06" y2="71.09"/><line class="cls-7" x1="160.26" y1="68.96" x2="160.89" y2="70.39"/><line class="cls-7" x1="163.46" y1="65.84" x2="164.3" y2="67.75"/><path class="cls-7" d="M163.45,80.12a8.89,8.89,0,1,1-16.27,7.15"/><path class="cls-7" d="M148,82.66a3.14,3.14,0,1,1-4.93,3.89"/><path class="cls-7" d="M166.07,76.33a3.13,3.13,0,1,1-6.15,1.21"/><ellipse class="cls-9" cx="134.61" cy="85.94" rx="2.88" ry="1.31" transform="translate(-23.2 61.41) rotate(-23.72)"/><ellipse class="cls-9" cx="169.76" cy="71.07" rx="2.88" ry="1.31" transform="translate(-14.25 74.29) rotate(-23.72)"/></svg>
